<svg width="50" height="20" viewBox="0 0 50 20" fill="none" xmlns="http://www.w3.org/2000/svg">
<g clip-path="url(#clip0_40000167_844)">
<path d="M13.0004 10.6698C13.0004 13.3125 12.1091 15.5295 10.3265 17.3157C8.544 19.1069 6.37215 20 3.81099 20H0V16.1682H3.81099C5.3272 16.1682 6.60264 15.6438 7.63734 14.5898C8.67208 13.541 9.18939 12.2326 9.18939 10.675L9.15869 0H13.0004V10.6698Z" fill="#57803E"/>
<path d="M15.7407 0.181641H19.5517L19.4902 3.95112H15.71L15.7407 0.181641ZM15.7407 5.47759H19.5517V19.9948H15.71L15.7407 5.47759Z" fill="#57803E"/>
<path d="M26.2014 4.13892H32.7476V8.00184H26.14V13.3497C26.14 14.1441 26.3858 14.8087 26.8826 15.3487C27.3795 15.8887 27.9993 16.1638 28.742 16.1638H32.7119V19.9956H28.7779C26.9748 19.9956 25.4535 19.3466 24.214 18.0434C22.9743 16.7402 22.3545 15.1566 22.3545 13.2822V0.0527344H26.1348L26.1963 4.13372L26.2014 4.13892Z" fill="#57803E"/>
<path d="M47.7252 17.7199C46.209 19.2412 44.3547 19.9992 42.1623 19.9992C39.97 19.9992 38.0901 19.2359 36.5842 17.7043C35.0782 16.1726 34.3252 14.2983 34.3252 12.0709C34.3252 9.84341 35.0833 7.96387 36.5995 6.42182C38.1157 4.87977 39.97 4.11133 42.1623 4.11133C44.3547 4.11133 46.209 4.87977 47.7252 6.42182C49.2414 7.96387 49.9995 9.84341 49.9995 12.0709C49.9995 14.2983 49.2414 16.2038 47.7252 17.7199ZM44.9745 9.11656C44.2267 8.35325 43.2893 7.97425 42.1623 7.97425C41.0355 7.97425 40.0827 8.36887 39.3041 9.16325C38.5255 9.95764 38.1362 10.9234 38.1362 12.0709C38.1362 13.2183 38.5255 14.1892 39.3041 14.9784C40.0827 15.7728 41.0355 16.1674 42.1623 16.1674C43.2893 16.1674 44.2677 15.778 45.036 14.994C45.8043 14.21 46.1885 13.2391 46.1885 12.0709C46.1885 10.9649 45.7223 9.87979 44.9745 9.11656Z" fill="#57803E"/>
</g>
<defs>
<clipPath id="clip0_40000167_844">
<rect width="50" height="20" fill="white"/>
</clipPath>
</defs>
</svg>
