<svg width="112" height="42" viewBox="0 0 112 42" fill="none" xmlns="http://www.w3.org/2000/svg">
<g clip-path="url(#clip0_40000044_17807)">
<path d="M4.20324 29.5157C2.94523 29.0276 1.94622 28.3102 1.19141 27.3561C0.436604 26.4021 0.0444004 25.2558 0 23.9172H5.62405C5.70545 24.6715 5.98665 25.2558 6.46026 25.6551C6.93386 26.0545 7.54807 26.2542 8.31027 26.2542C9.07248 26.2542 9.70889 26.0841 10.1603 25.7439C10.6117 25.4037 10.8411 24.9304 10.8411 24.3313C10.8411 23.7323 10.6635 23.4069 10.3009 23.074C9.93829 22.7412 9.49429 22.475 8.97628 22.2605C8.45088 22.046 7.70347 21.802 6.73406 21.5284C5.33545 21.1216 4.18844 20.7148 3.30783 20.3007C2.41982 19.8939 1.65761 19.2875 1.02121 18.4961C0.384803 17.6974 0.0666006 16.662 0.0666006 15.3752C0.0666006 13.4671 0.799207 11.9805 2.25702 10.9008C3.72223 9.82101 5.62405 9.28112 7.96987 9.28112C10.3157 9.28112 12.2841 9.82101 13.7419 10.9008C15.2071 11.9805 15.9841 13.4819 16.0877 15.4047H10.3749C10.3305 14.7465 10.0789 14.2214 9.60529 13.8443C9.13168 13.4671 8.52488 13.2748 7.78487 13.2748C7.04486 13.2748 6.63046 13.4375 6.23826 13.7555C5.84605 14.0735 5.65365 14.5394 5.65365 15.1385C5.65365 15.7375 5.98665 16.3144 6.64526 16.6842C7.30387 17.054 8.33247 17.4533 9.73109 17.8823C11.1297 18.326 12.2693 18.755 13.1425 19.1617C14.0157 19.5685 14.7779 20.1602 15.4143 20.9441C16.0507 21.7206 16.3689 22.7191 16.3689 23.9467C16.3689 25.1744 16.0581 26.1728 15.4291 27.1269C14.8001 28.0809 13.8899 28.8353 12.6985 29.4047C11.5071 29.9668 10.0937 30.2478 8.46568 30.2478C6.83766 30.2478 5.46125 30.0038 4.20324 29.5157ZM22.4888 9.56955V21.8168C22.4888 23.0445 22.807 23.9837 23.4434 24.6419C24.0798 25.3001 25.0196 25.6329 26.2554 25.6329C27.4912 25.6329 28.4385 25.3001 29.0971 24.6419C29.7557 23.9837 30.0887 23.0371 30.0887 21.8168V9.56955H35.3723V21.7872C35.3723 23.6139 34.9579 25.1596 34.1365 26.4243C33.3151 27.6889 32.2051 28.643 30.8139 29.279C29.4227 29.9224 27.8761 30.2404 26.1666 30.2404C24.4572 30.2404 22.9254 29.9224 21.5786 29.2938C20.2318 28.6652 19.1662 27.7111 18.3818 26.4391C17.5974 25.167 17.2052 23.6139 17.2052 21.7872V9.56955H22.4888ZM94.114 9.56955V30.0408H88.8304V9.56955H94.114ZM112 9.56955V13.5632H106.258V30.0408H100.974V13.5632H95.2315V9.56955H112ZM59.3189 0.0957031L55.1009 9.56955L49.0772 23.7397L42.9944 9.56955H36.7561V30.0408H42.0398V17.7344L46.9164 30.0408H51.1789L56.0333 17.764V30.0408H61.3096V0.0957031H59.3189ZM75.1181 23.7397L69.0352 9.56955L64.8024 0.0957031H62.797V30.0408H68.0732V17.7344L72.9573 30.0408H77.2197L82.0667 17.764V41.9996H87.3504V9.56955H81.1417L75.1181 23.7397ZM98.8131 36.083H98.1989V37.2072H98.8131C99.0277 37.2072 99.1905 37.1554 99.2941 37.0593C99.3977 36.9631 99.4495 36.8226 99.4495 36.6451C99.4495 36.2679 99.2423 36.0756 98.8131 36.0756V36.083ZM94.4841 37.9615H95.6089L95.0465 36.3419L94.4841 37.9615ZM101.84 37.9615H102.957L102.402 36.3419L101.84 37.9615Z" fill="#57803E"/>
<path d="M110.039 32.5553H90.7914C89.711 32.5553 88.8304 33.4354 88.8304 34.5152V40.0471C88.8304 41.1269 89.711 42.007 90.7914 42.007H110.039C111.119 42.007 112 41.1269 112 40.0471V34.5152C112 33.4354 111.119 32.5553 110.039 32.5553ZM96.0751 39.3224L95.8161 38.5828H94.2694L94.0104 39.3224H93.1964L94.5876 35.4396H95.4905L96.8817 39.3224H96.0603H96.0751ZM100.093 37.2294C99.9971 37.4143 99.8417 37.5548 99.6345 37.6657C99.4273 37.7767 99.1609 37.8284 98.8427 37.8284H98.1915V39.315H97.4145V35.4396H98.8427C99.1387 35.4396 99.3977 35.4914 99.6123 35.5949C99.8195 35.6985 99.9823 35.839 100.086 36.0239C100.189 36.2088 100.241 36.4085 100.241 36.6377C100.241 36.867 100.189 37.0371 100.093 37.222V37.2294ZM103.423 39.3224L103.164 38.5828H101.618L101.359 39.3224H100.545L101.936 35.4396H102.839L104.23 39.3224H103.409H103.423ZM105.525 38.0503C105.621 38.2426 105.762 38.3979 105.939 38.5014C106.117 38.605 106.317 38.6567 106.539 38.6567C106.761 38.6567 106.938 38.6124 107.101 38.5162C107.264 38.4201 107.39 38.2796 107.479 38.0947H108.374C108.241 38.494 108.019 38.7973 107.693 39.0191C107.368 39.241 106.99 39.3519 106.554 39.3519C106.117 39.3519 105.851 39.2706 105.547 39.1005C105.251 38.9304 105.014 38.7011 104.844 38.3979C104.674 38.1021 104.585 37.7545 104.585 37.3773C104.585 37.0001 104.674 36.6525 104.844 36.3493C105.014 36.0461 105.251 35.8094 105.547 35.6467C105.843 35.4766 106.176 35.3953 106.554 35.3953C106.931 35.3953 107.368 35.5062 107.693 35.7281C108.019 35.9499 108.248 36.2605 108.374 36.6525H107.479C107.39 36.4676 107.264 36.3271 107.101 36.2384C106.938 36.1496 106.753 36.0978 106.539 36.0978C106.324 36.0978 106.11 36.1496 105.939 36.2532C105.762 36.3567 105.629 36.5046 105.525 36.6969C105.429 36.8892 105.377 37.1184 105.377 37.3773C105.377 37.6361 105.429 37.858 105.525 38.0503ZM7.14846 5.06562L5.96445 6.33767C5.94225 6.36725 5.90525 6.38944 5.87565 6.40423C5.83865 6.41902 5.80165 6.42642 5.76465 6.42642H0.140601C0.111001 6.42642 0.0888008 6.41902 0.0666006 6.40423C0.0444004 6.38944 0.0296003 6.36725 0.0148001 6.34507C0.00740007 6.32288 0 6.2933 0.00740007 6.26371C0.00740007 6.23413 0.0222002 6.21194 0.0444004 6.18976L1.22841 4.9177C1.25061 4.88812 1.28761 4.86593 1.31721 4.85114C1.35421 4.83635 1.39121 4.82895 1.42821 4.82895H7.05226C7.08186 4.82895 7.10406 4.82895 7.12626 4.85114C7.14846 4.86593 7.17066 4.88812 7.17806 4.91031C7.18546 4.93249 7.19286 4.96208 7.18546 4.99166C7.17806 5.02124 7.17066 5.04343 7.14846 5.06562ZM5.96445 2.50671C5.94225 2.47713 5.90525 2.45494 5.87565 2.44015C5.83865 2.42536 5.80165 2.41797 5.76465 2.41797H0.140601C0.111001 2.41797 0.0888008 2.42536 0.0666006 2.44015C0.0444004 2.45494 0.0296003 2.47713 0.0148001 2.49932C0.00740007 2.52151 0 2.55109 0.00740007 2.58067C0.00740007 2.61025 0.0222002 2.63244 0.0444004 2.65463L1.22841 3.92668C1.25061 3.95627 1.28761 3.97845 1.31721 3.99324C1.35421 4.00804 1.39121 4.01543 1.42821 4.01543H7.05226C7.08186 4.01543 7.10406 4.00804 7.12626 3.99324C7.14846 3.97845 7.16326 3.95627 7.17806 3.93408C7.18546 3.91189 7.19286 3.88231 7.18546 3.85273C7.18546 3.82314 7.17066 3.80096 7.14846 3.77877L5.96445 2.50671ZM0.140601 1.58965H5.76465C5.80165 1.58965 5.83865 1.58226 5.87565 1.56746C5.91265 1.55267 5.94225 1.53049 5.96445 1.5009L7.14846 0.228849C7.17066 0.206662 7.17806 0.184475 7.18546 0.154892C7.18546 0.12531 7.18546 0.103123 7.17806 0.0735399C7.17066 0.0513528 7.14846 0.0291658 7.12626 0.0143745C7.10406 -0.000416831 7.07446 -0.0078125 7.05226 -0.0078125H1.42081C1.38381 -0.0078125 1.34681 -0.000416831 1.30981 0.0143745C1.27281 0.0291658 1.24321 0.0513528 1.22101 0.0809355L0.0370003 1.36039C0.0222002 1.38257 0.00740007 1.40476 0 1.43434C0 1.46393 0 1.48611 0.00740007 1.5157C0.0148001 1.53788 0.0370003 1.56007 0.0592005 1.57486C0.0814007 1.58965 0.111001 1.59705 0.133201 1.59705L0.140601 1.58965ZM14.0083 2.71379H10.9965V1.72277H14.7853V0.731754H10.9817C10.8485 0.731754 10.7227 0.753941 10.6043 0.805711C10.4859 0.857481 10.3749 0.924042 10.2787 1.02019C10.1899 1.10893 10.1159 1.21987 10.0641 1.3382C10.0123 1.45653 9.99009 1.58965 9.99009 1.71538V2.72119C9.99009 2.85431 10.0197 2.98004 10.0641 3.09837C10.1159 3.2167 10.1899 3.32763 10.2787 3.41638C10.3675 3.50513 10.4785 3.57909 10.6043 3.63086C10.7227 3.68263 10.8559 3.70481 10.9817 3.70481H13.9935V4.69583H10.0567V5.68685H14.0009C14.1341 5.68685 14.2599 5.66467 14.3783 5.6129C14.4967 5.56113 14.6077 5.49456 14.7039 5.39842C14.7927 5.30967 14.8667 5.19874 14.9185 5.08041C14.9703 4.96208 14.9925 4.82895 14.9925 4.70323V3.69742C14.9925 3.5643 14.9629 3.43857 14.9185 3.32024C14.8667 3.20191 14.7927 3.09097 14.7039 3.00222C14.6151 2.91348 14.5041 2.83952 14.3783 2.78775C14.2525 2.73598 14.1267 2.71379 14.0009 2.71379H14.0083ZM19.8396 0.73915H16.8204C16.6871 0.73915 16.5613 0.761337 16.4429 0.813107C16.3245 0.864876 16.2135 0.931437 16.1173 1.02758C16.0211 1.11633 15.9545 1.22726 15.9027 1.34559C15.8509 1.46393 15.8287 1.59705 15.8287 1.72277V4.71062C15.8287 4.84375 15.8583 4.96947 15.9027 5.0878C15.9545 5.20613 16.0285 5.31707 16.1173 5.40582C16.2135 5.49456 16.3171 5.56852 16.4429 5.62029C16.5613 5.67206 16.6946 5.69425 16.8204 5.69425H19.8396C19.9728 5.69425 20.0986 5.67206 20.217 5.62029C20.3354 5.56852 20.4464 5.50196 20.5426 5.40582C20.6314 5.31707 20.7054 5.20613 20.7572 5.0878C20.809 4.96947 20.8312 4.83635 20.8312 4.71062V1.71538C20.8312 1.58226 20.8016 1.45653 20.7572 1.3382C20.7054 1.21987 20.6314 1.10893 20.5426 1.02019C20.4538 0.931437 20.3428 0.857481 20.217 0.805711C20.0986 0.753941 19.9654 0.731754 19.8396 0.731754V0.73915ZM19.8322 4.69583H16.8278V1.72277H19.8322V4.69583ZM30.4217 0.73915H27.4764C27.3432 0.73915 27.2174 0.761337 27.099 0.813107C26.9806 0.864876 26.8696 0.931437 26.7734 1.02758C26.6846 1.11633 26.6106 1.22726 26.5588 1.34559C26.507 1.46393 26.4848 1.59705 26.4848 1.72277V5.69425H27.4912V4.0672H30.4217V5.69425H31.4281V1.71538C31.4281 1.58226 31.3985 1.45653 31.3467 1.3382C31.2949 1.21987 31.2209 1.10893 31.1321 1.02019C31.0359 0.931437 30.9323 0.857481 30.8065 0.805711C30.6881 0.753941 30.5549 0.731754 30.4291 0.731754L30.4217 0.73915ZM30.4143 3.06879H27.4838V1.72277H30.4143V3.06879ZM42.1508 0.73915H39.2056C39.0723 0.73915 38.9466 0.761337 38.8281 0.813107C38.7097 0.864876 38.5987 0.931437 38.5025 1.02758C38.4137 1.11633 38.3397 1.22726 38.2879 1.34559C38.2361 1.46393 38.2139 1.59705 38.2139 1.72277V5.69425H39.2204V4.0672H42.1434V5.69425H43.1498V1.71538C43.1498 1.58226 43.1202 1.45653 43.0758 1.3382C43.024 1.21987 42.95 1.10893 42.8612 1.02019C42.7724 0.931437 42.6614 0.857481 42.5356 0.805711C42.4172 0.753941 42.284 0.731754 42.1582 0.731754L42.1508 0.73915ZM42.136 3.06879H39.2056V1.72277H42.136V3.06879ZM36.3121 4.69583H35.9125L34.4769 1.14591C34.4251 1.02019 34.3437 0.916646 34.2327 0.842689C34.1217 0.768733 33.9959 0.731754 33.8627 0.731754H32.9747C32.8859 0.731754 32.8045 0.746546 32.7231 0.783524C32.6417 0.813107 32.5677 0.864876 32.5085 0.924042C32.4493 0.983207 32.3975 1.05716 32.3679 1.13852C32.3309 1.21987 32.3161 1.30122 32.3161 1.38997V5.68685H33.3225V1.72277H33.7221L35.1577 5.27269C35.2095 5.39842 35.2909 5.50196 35.4019 5.57592C35.5129 5.64987 35.6387 5.68685 35.7719 5.68685H36.6599C36.7487 5.68685 36.8301 5.67206 36.9115 5.63508C36.9929 5.6055 37.0669 5.55373 37.1261 5.49456C37.1853 5.4354 37.2371 5.36144 37.2667 5.28009C37.3037 5.19874 37.3185 5.11739 37.3185 5.02864V0.73915H36.3121V4.70323V4.69583ZM22.7256 0.73915H21.7192V4.71062C21.7192 4.84375 21.7488 4.96947 21.7932 5.0878C21.845 5.20613 21.919 5.31707 22.0078 5.40582C22.0966 5.49456 22.2076 5.56852 22.3334 5.62029C22.4518 5.67206 22.585 5.69425 22.7108 5.69425H25.7226V4.70323H22.7182V0.73915H22.7256Z" fill="#57803E"/>
</g>
<defs>
<clipPath id="clip0_40000044_17807">
<rect width="112" height="42" fill="white"/>
</clipPath>
</defs>
</svg>
