<svg width="24" height="19" viewBox="0 0 24 19" fill="none" xmlns="http://www.w3.org/2000/svg">
<path d="M21.0275 2.98386C19.3761 1.58749 17.3945 0.889313 15.3028 0.772949L14.9725 1.12204C16.844 1.58749 18.4954 2.5184 20.0367 3.7984C18.1651 2.75113 16.0734 2.05295 13.8716 1.82022C13.211 1.70386 12.6606 1.70386 12 1.70386C11.3394 1.70386 10.789 1.70386 10.1284 1.82022C7.92661 2.05295 5.83486 2.75113 3.9633 3.7984C5.50459 2.5184 7.15596 1.58749 9.02752 1.12204L8.69725 0.772949C6.6055 0.889313 4.62385 1.58749 2.97248 2.98386C1.10092 6.70749 0.110092 10.8966 0 15.202C1.65138 17.0639 3.9633 18.2275 6.38532 18.2275C6.38532 18.2275 7.15596 17.2966 7.70642 16.482C6.27523 16.1329 4.95413 15.3184 4.07339 14.0384C4.84404 14.5039 5.61468 14.9693 6.38532 15.3184C7.37615 15.7839 8.36697 16.0166 9.3578 16.2493C10.2385 16.3657 11.1193 16.482 12 16.482C12.8807 16.482 13.7615 16.3657 14.6422 16.2493C15.633 16.0166 16.6239 15.7839 17.6147 15.3184C18.3853 14.9693 19.156 14.5039 19.9266 14.0384C19.0459 15.3184 17.7248 16.1329 16.2936 16.482C16.844 17.2966 17.6147 18.2275 17.6147 18.2275C20.0367 18.2275 22.3486 17.0639 24 15.202C23.8899 10.8966 22.8991 6.70749 21.0275 2.98386ZM8.36697 13.1075C7.26606 13.1075 6.27523 12.0602 6.27523 10.7802C6.27523 9.50022 7.26606 8.45295 8.36697 8.45295C9.46789 8.45295 10.4587 9.50022 10.4587 10.7802C10.4587 12.0602 9.46789 13.1075 8.36697 13.1075ZM15.633 13.1075C14.5321 13.1075 13.5413 12.0602 13.5413 10.7802C13.5413 9.50022 14.5321 8.45295 15.633 8.45295C16.7339 8.45295 17.7248 9.50022 17.7248 10.7802C17.7248 12.0602 16.7339 13.1075 15.633 13.1075Z" fill="#57803E"/>
</svg>
