<svg width="20" height="21" viewBox="0 0 20 21" fill="none" xmlns="http://www.w3.org/2000/svg">
<path d="M13.3333 2.16663H6.66667C3.75 2.16663 2.5 3.83329 2.5 6.33329V14.6666C2.5 17.1666 3.75 18.8333 6.66667 18.8333H13.3333C16.25 18.8333 17.5 17.1666 17.5 14.6666V6.33329C17.5 3.83329 16.25 2.16663 13.3333 2.16663ZM6.66667 10.7083H10C10.3417 10.7083 10.625 10.9916 10.625 11.3333C10.625 11.675 10.3417 11.9583 10 11.9583H6.66667C6.325 11.9583 6.04167 11.675 6.04167 11.3333C6.04167 10.9916 6.325 10.7083 6.66667 10.7083ZM13.3333 15.2916H6.66667C6.325 15.2916 6.04167 15.0083 6.04167 14.6666C6.04167 14.325 6.325 14.0416 6.66667 14.0416H13.3333C13.675 14.0416 13.9583 14.325 13.9583 14.6666C13.9583 15.0083 13.675 15.2916 13.3333 15.2916ZM15.4167 8.20829H13.75C12.4833 8.20829 11.4583 7.18329 11.4583 5.91663V4.24996C11.4583 3.90829 11.7417 3.62496 12.0833 3.62496C12.425 3.62496 12.7083 3.90829 12.7083 4.24996V5.91663C12.7083 6.49163 13.175 6.95829 13.75 6.95829H15.4167C15.7583 6.95829 16.0417 7.24163 16.0417 7.58329C16.0417 7.92496 15.7583 8.20829 15.4167 8.20829Z" fill="#F5FDF1"/>
</svg>
