<svg width="32" height="32" viewBox="0 0 32 32" fill="none" xmlns="http://www.w3.org/2000/svg">
    <path
        d="M7.09356 13.36L11.3736 17.64L13.9869 20.2667C15.0936 21.3733 16.8936 21.3733 18.0002 20.2667L24.9069 13.36C25.8136 12.4533 25.1602 10.9067 23.8936 10.9067L16.4136 10.9067L8.1069 10.9067C6.8269 10.9067 6.1869 12.4533 7.09356 13.36Z"
        fill="black" />
    <path
        d="M7.09356 13.36L11.3736 17.64L13.9869 20.2667C15.0936 21.3733 16.8936 21.3733 18.0002 20.2667L24.9069 13.36C25.8136 12.4533 25.1602 10.9067 23.8936 10.9067L16.4136 10.9067L8.1069 10.9067C6.8269 10.9067 6.1869 12.4533 7.09356 13.36Z"
        fill="url(#paint0_linear_133_510)" />
    <defs>
        <linearGradient id="paint0_linear_133_510" x1="23.463" y1="10.9067" x2="14.2018"
            y2="13.8451" gradientUnits="userSpaceOnUse">
            <stop stop-color="#FF3D3D" />
            <stop offset="1" stop-color="#FF6060" />
        </linearGradient>
    </defs>
</svg>
    