<svg width="269" height="262" viewBox="0 0 269 262" fill="none"
  xmlns="http://www.w3.org/2000/svg">
  <rect width="204.815" height="148.965" rx="22.917" transform="matrix(0.9946 -0.103785 0.103772 0.994601 41.0354 71.2568)" fill="#202225"/>
  <rect x="0.786605" y="0.637964" width="203.383" height="147.533" rx="22.2008" transform="matrix(0.9946 -0.103785 0.103772 0.994601 40.9734 71.3419)" stroke="white" stroke-opacity="0.15" stroke-width="1.43231"/>
  <rect width="14.3227" height="110.292" rx="7.16136" transform="matrix(-0.9946 0.103785 -0.103772 -0.994601 221.526 186.351)" fill="#A9EE9B"/>
  <rect width="14.3227" height="83.0768" rx="7.16136" transform="matrix(-0.9946 0.103785 -0.103772 -0.994601 107.566 198.265)" fill="#A9EE9B"/>
  <rect width="14.3227" height="41.5372" rx="7.16136" transform="matrix(-0.9946 0.103785 -0.103772 -0.994601 164.549 192.304)" fill="#A9EE9B"/>
  <rect width="14.3227" height="68.7523" rx="7.16136" transform="matrix(-0.9946 0.103785 -0.103772 -0.994601 193.038 189.296)" fill="#A9EE9B"/>
  <rect width="14.3227" height="116.021" rx="7.16136" transform="matrix(-0.9946 0.103785 -0.103772 -0.994601 136.057 195.257)" fill="#A9EE9B"/>
  <rect x="0.637972" y="-0.786616" width="12.8909" height="161.847" rx="6.44543" transform="matrix(-0.103772 -0.994601 0.9946 -0.103785 77.7085 201.281)" fill="#DDF8D7" stroke="#23C965" stroke-width="1.43231"/>
  <ellipse cx="25.0478" cy="25.0485" rx="25.0478" ry="25.0485" transform="matrix(0.965922 -0.258832 0.258806 0.965929 206.98 34.1265)" fill="white"/>
  <g clip-path="url(#clip0_18_4385)">
    <path d="M251.353 55.0467L248.489 60.3362C248.427 60.4512 248.342 60.5524 248.238 60.6336C248.135 60.7148 248.016 60.7743 247.889 60.8084L228.955 65.8819C228.865 65.9061 228.769 65.9037 228.681 65.8752C228.592 65.8466 228.514 65.7931 228.456 65.7211C228.398 65.6492 228.363 65.5619 228.355 65.4701C228.347 65.3783 228.366 65.2859 228.41 65.2044L231.277 59.914C231.339 59.7994 231.424 59.6984 231.527 59.6173C231.63 59.5362 231.749 59.4767 231.875 59.4424L250.808 54.3692C250.898 54.345 250.993 54.3473 251.082 54.3759C251.171 54.4044 251.249 54.458 251.307 54.5299C251.365 54.6019 251.4 54.6891 251.408 54.781C251.416 54.8728 251.397 54.9651 251.353 55.0467ZM245.082 47.6205C244.971 47.5521 244.846 47.5072 244.716 47.4885C244.586 47.4699 244.453 47.4779 244.326 47.512L225.393 52.5856C225.302 52.6098 225.221 52.6594 225.158 52.7285C225.096 52.7975 225.055 52.8829 225.041 52.9742C225.027 53.0655 225.04 53.1586 225.079 53.2422C225.118 53.3258 225.18 53.3962 225.259 53.4447L230.387 56.593C230.498 56.6612 230.622 56.706 230.752 56.7248C230.882 56.7435 231.014 56.7358 231.141 56.702L250.074 51.6287C250.164 51.6045 250.245 51.5549 250.308 51.4858C250.37 51.4168 250.411 51.3314 250.425 51.2401C250.439 51.1488 250.426 51.0557 250.387 50.9721C250.349 50.8885 250.286 50.8181 250.207 50.7695L245.082 47.6205ZM224.658 49.8451L243.592 44.7716C243.719 44.7375 243.838 44.6781 243.941 44.5968C244.045 44.5156 244.13 44.4144 244.192 44.2995L247.056 39.0099C247.1 38.9284 247.119 38.836 247.111 38.7442C247.103 38.6524 247.068 38.5651 247.01 38.4932C246.952 38.4212 246.874 38.3677 246.785 38.3391C246.697 38.3106 246.601 38.3082 246.511 38.3324L227.579 43.4057C227.452 43.4399 227.333 43.4994 227.23 43.5805C227.127 43.6616 227.042 43.7626 226.98 43.8772L224.114 49.1673C224.07 49.2488 224.051 49.3411 224.059 49.4328C224.067 49.5245 224.102 49.6117 224.16 49.6837C224.218 49.7556 224.296 49.8092 224.384 49.8379C224.473 49.8666 224.568 49.8691 224.658 49.8451Z" fill="black"/>
  </g>
  <path d="M23.0532 20.7003L35.552 30.4906L35.5536 30.4919C36.3232 31.0915 37.25 31.4555 38.2219 31.5399C39.1936 31.6243 40.1689 31.4257 41.0303 30.9681L23.0532 20.7003ZM23.0532 20.7003L30.4861 34.7213L30.4869 34.7227C30.9421 35.5856 31.1379 36.5619 31.0505 37.5337C30.9631 38.5052 30.5965 39.4306 29.9949 40.1983L23.0532 20.7003ZM41.031 30.9677L55.0513 23.5341L45.2683 36.0279L45.2676 36.0288C44.6666 36.7987 44.3011 37.7259 44.2151 38.6988C44.1291 39.6717 44.3262 40.6487 44.7828 41.5121L44.7833 41.5131L52.2172 55.5224L39.717 45.7433L39.7164 45.7428C38.9466 45.1418 38.0194 44.7762 37.0465 44.6902C36.0737 44.6042 35.0967 44.8014 34.2334 45.258L34.2324 45.2586L20.2168 52.6986L29.9944 40.1989L41.031 30.9677Z" fill="#FFE609" stroke="white" stroke-width="1.56553"/>
  <path d="M157.444 230.663L180.671 216.672L181.174 243.783L157.444 230.663Z" fill="#85FD3C" stroke="white" stroke-width="1.56553"/>
  <path d="M149.474 230.917L176.226 235.336L159.024 256.296L149.474 230.917Z" fill="#FD3C5F" stroke="white" stroke-width="1.56553"/>
  <defs>
    <clipPath id="clip0_18_4385">
      <rect width="25.0478" height="22.0665" fill="white" transform="matrix(0.965922 -0.258834 0.258804 0.96593 222.781 44.689)"/>
    </clipPath>
  </defs>
</svg>
