<svg width="16" height="16" viewBox="0 0 16 16" fill="none" xmlns="http://www.w3.org/2000/svg">
<path d="M4.4 12.8V8C4.4 7.50004 4.4 7.25005 4.27268 7.07481C4.23156 7.01821 4.18179 6.96844 4.12519 6.92732C3.94995 6.8 3.69996 6.8 3.2 6.8C2.70004 6.8 2.45005 6.8 2.27481 6.92732C2.21821 6.96844 2.16844 7.01821 2.12732 7.07481C2 7.25005 2 7.50004 2 8V12.8C2 13.3 2 13.5499 2.12732 13.7252C2.16844 13.7818 2.21821 13.8316 2.27481 13.8727C2.45005 14 2.70004 14 3.2 14C3.69996 14 3.94995 14 4.12519 13.8727C4.18179 13.8316 4.23156 13.7818 4.27268 13.7252C4.4 13.5499 4.4 13.3 4.4 12.8Z" fill="#9FE870"/>
<path d="M3.2 4.4C3.86274 4.4 4.4 3.86274 4.4 3.2C4.4 2.53726 3.86274 2 3.2 2C2.53726 2 2 2.53726 2 3.2C2 3.86274 2.53726 4.4 3.2 4.4Z" fill="#9FE870"/>
<path opacity="0.5" d="M9.23366 10.7003V12.717C9.23366 13.297 9.23366 13.5871 9.06533 13.7765C9.04794 13.7961 9.0294 13.8146 9.00983 13.832C8.8204 14.0003 8.53038 14.0003 7.95033 14.0003C7.37028 14.0003 7.08025 14.0003 6.89082 13.832C6.87125 13.8146 6.85272 13.7961 6.83532 13.7765C6.66699 13.5871 6.66699 13.297 6.66699 12.717V7.95033C6.66699 7.37027 6.66699 7.08025 6.83532 6.89082C6.85272 6.87125 6.87125 6.85272 6.89082 6.83532C7.08025 6.66699 7.37027 6.66699 7.95033 6.66699H8.40676C8.55566 6.66699 8.6301 6.66699 8.69209 6.67883C8.96056 6.73012 9.17053 6.94009 9.22182 7.20856C9.23366 7.27055 9.23366 7.345 9.23366 7.49389V7.49392C9.23366 7.55479 9.23366 7.58522 9.23617 7.59411C9.24891 7.63918 9.28683 7.65633 9.32909 7.63612C9.33742 7.63213 9.36327 7.60939 9.41497 7.56391C10.4709 6.63493 14.0003 6.51336 14.0003 9.60033V12.717C14.0003 13.297 14.0003 13.5871 13.832 13.7765C13.8146 13.7961 13.7961 13.8146 13.7765 13.832C13.5871 14.0003 13.297 14.0003 12.717 14.0003C12.1369 14.0003 11.8469 14.0003 11.6575 13.832C11.6379 13.8146 11.6194 13.7961 11.602 13.7765C11.4337 13.5871 11.4337 13.297 11.4337 12.717V10.7003C11.4337 9.23366 9.23366 9.23366 9.23366 10.7003Z" fill="#9FE870"/>
</svg>
