<svg width="35" height="40" viewBox="0 0 35 40" fill="none" xmlns="http://www.w3.org/2000/svg">
<path d="M23.2798 13.0747C23.2798 9.79901 20.6269 7.14355 17.3543 7.14355C14.0817 7.14355 11.4287 9.79901 11.4287 13.0747V19.5798C11.4287 22.8554 14.0817 25.5109 17.3543 25.5109C20.6269 25.5109 23.2798 22.8554 23.2798 19.5798V13.0747Z" stroke="#A9EE9B" stroke-width="1.91327"/>
<path d="M18.119 10.9704C18.119 10.5477 17.7767 10.2051 17.3544 10.2051C16.9322 10.2051 16.5898 10.5477 16.5898 10.9704V13.2663C16.5898 13.689 16.9322 14.0316 17.3544 14.0316C17.7767 14.0316 18.119 13.689 18.119 13.2663V10.9704Z" fill="#A9EE9B"/>
<path d="M19.6422 30.3862C19.9408 30.0873 19.9408 29.6027 19.6422 29.3038C19.3436 29.005 18.8595 29.005 18.5609 29.3038L16.939 30.9273C16.6404 31.2262 16.6404 31.7107 16.939 32.0096C17.2376 32.3085 17.7217 32.3085 18.0203 32.0096L19.6422 30.3862Z" fill="#A9EE9B"/>
<path d="M15.2181 30.3862C14.9196 30.0873 14.9196 29.6027 15.2181 29.3038C15.5167 29.005 16.0008 29.005 16.2994 29.3038L17.9214 30.9273C18.22 31.2262 18.22 31.7107 17.9214 32.0096C17.6228 32.3085 17.1387 32.3085 16.8401 32.0096L15.2181 30.3862Z" fill="#A9EE9B"/>
</svg>
