<svg width="94" height="136" viewBox="0 0 94 136" fill="none" xmlns="http://www.w3.org/2000/svg">
<g filter="url(#filter0_dddddii_5_88)">
<path d="M15 35C15 17.3269 29.3269 3 47 3C64.6731 3 79 17.3269 79 35C79 52.6731 64.6731 67 47 67C29.3269 67 15 52.6731 15 35Z" fill="#0071F3"/>
<g clip-path="url(#clip0_5_88)">
<path d="M50.4716 21.8099H48.0706H42.7468C41.9117 21.8099 41.1288 22.4318 41.0244 23.3129L40.5024 26.837V26.8889H37.8927C37.2142 26.8889 36.64 27.4589 36.64 28.1327C36.64 28.8582 37.2142 29.3765 37.8927 29.4283H40.0849L39.7195 31.8641V32.0714H37.1098C36.4312 32.0714 35.8571 32.6415 35.8571 33.3152C35.8571 33.989 36.4312 34.5591 37.1098 34.5591H39.3019L38.1015 42.1256L37.7361 44.6651L37.5273 46.0125C37.3708 47.1009 38.1537 48.0337 39.2498 48.0337H40.92H43.2165H45.0955C45.9307 48.0337 46.6614 47.4118 46.818 46.5308L47.9141 39.5861H48.5404H50.6282C55.5345 39.5861 59.5534 35.5437 59.449 30.6203C59.3969 25.5932 55.3257 21.8099 50.4716 21.8099ZM42.6424 29.3247L50.4716 29.3765C51.1501 29.3765 51.7764 29.9466 51.7764 30.6721C51.7764 31.3977 51.2023 31.9678 50.4716 31.9678H42.2248L42.6424 29.3247ZM50.5238 36.8912H49.2189H48.5926H47.2877C46.4526 36.8912 45.7219 37.5131 45.5653 38.3942L44.4692 45.3388H40.1371L41.8073 34.4554H50.4716C52.5594 34.4554 54.2818 32.7452 54.2818 30.6721C54.2818 28.5991 52.5594 26.8889 50.4716 26.8889L43.06 26.837L43.4253 24.3494H50.6282C54.1774 24.3494 56.9959 27.2516 56.9437 30.7758C56.8393 34.1963 53.9686 36.8912 50.5238 36.8912Z" fill="white"/>
</g>
</g>
<defs>
<filter id="filter0_dddddii_5_88" x="0" y="0" width="94" height="136" filterUnits="userSpaceOnUse" color-interpolation-filters="sRGB">
<feFlood flood-opacity="0" result="BackgroundImageFix"/>
<feColorMatrix in="SourceAlpha" type="matrix" values="0 0 0 0 0 0 0 0 0 0 0 0 0 0 0 0 0 0 127 0" result="hardAlpha"/>
<feOffset dy="2"/>
<feGaussianBlur stdDeviation="2.5"/>
<feColorMatrix type="matrix" values="0 0 0 0 0.603922 0 0 0 0 0.635294 0 0 0 0 0.623529 0 0 0 0.39 0"/>
<feBlend mode="normal" in2="BackgroundImageFix" result="effect1_dropShadow_5_88"/>
<feColorMatrix in="SourceAlpha" type="matrix" values="0 0 0 0 0 0 0 0 0 0 0 0 0 0 0 0 0 0 127 0" result="hardAlpha"/>
<feOffset dy="9"/>
<feGaussianBlur stdDeviation="4.5"/>
<feColorMatrix type="matrix" values="0 0 0 0 0.603922 0 0 0 0 0.635294 0 0 0 0 0.623529 0 0 0 0.34 0"/>
<feBlend mode="normal" in2="effect1_dropShadow_5_88" result="effect2_dropShadow_5_88"/>
<feColorMatrix in="SourceAlpha" type="matrix" values="0 0 0 0 0 0 0 0 0 0 0 0 0 0 0 0 0 0 127 0" result="hardAlpha"/>
<feOffset dy="20"/>
<feGaussianBlur stdDeviation="6"/>
<feColorMatrix type="matrix" values="0 0 0 0 0.603922 0 0 0 0 0.635294 0 0 0 0 0.623529 0 0 0 0.2 0"/>
<feBlend mode="normal" in2="effect2_dropShadow_5_88" result="effect3_dropShadow_5_88"/>
<feColorMatrix in="SourceAlpha" type="matrix" values="0 0 0 0 0 0 0 0 0 0 0 0 0 0 0 0 0 0 127 0" result="hardAlpha"/>
<feOffset dy="35"/>
<feGaussianBlur stdDeviation="7"/>
<feColorMatrix type="matrix" values="0 0 0 0 0.603922 0 0 0 0 0.635294 0 0 0 0 0.623529 0 0 0 0.06 0"/>
<feBlend mode="normal" in2="effect3_dropShadow_5_88" result="effect4_dropShadow_5_88"/>
<feColorMatrix in="SourceAlpha" type="matrix" values="0 0 0 0 0 0 0 0 0 0 0 0 0 0 0 0 0 0 127 0" result="hardAlpha"/>
<feOffset dy="54"/>
<feGaussianBlur stdDeviation="7.5"/>
<feColorMatrix type="matrix" values="0 0 0 0 0.603922 0 0 0 0 0.635294 0 0 0 0 0.623529 0 0 0 0.01 0"/>
<feBlend mode="normal" in2="effect4_dropShadow_5_88" result="effect5_dropShadow_5_88"/>
<feBlend mode="normal" in="SourceGraphic" in2="effect5_dropShadow_5_88" result="shape"/>
<feColorMatrix in="SourceAlpha" type="matrix" values="0 0 0 0 0 0 0 0 0 0 0 0 0 0 0 0 0 0 127 0" result="hardAlpha"/>
<feOffset dy="1"/>
<feGaussianBlur stdDeviation="1"/>
<feComposite in2="hardAlpha" operator="arithmetic" k2="-1" k3="1"/>
<feColorMatrix type="matrix" values="0 0 0 0 1 0 0 0 0 1 0 0 0 0 1 0 0 0 0.64 0"/>
<feBlend mode="normal" in2="shape" result="effect6_innerShadow_5_88"/>
<feColorMatrix in="SourceAlpha" type="matrix" values="0 0 0 0 0 0 0 0 0 0 0 0 0 0 0 0 0 0 127 0" result="hardAlpha"/>
<feOffset dy="-1"/>
<feGaussianBlur stdDeviation="1.5"/>
<feComposite in2="hardAlpha" operator="arithmetic" k2="-1" k3="1"/>
<feColorMatrix type="matrix" values="0 0 0 0 0 0 0 0 0 0 0 0 0 0 0 0 0 0 0.12 0"/>
<feBlend mode="normal" in2="effect6_innerShadow_5_88" result="effect7_innerShadow_5_88"/>
</filter>
<clipPath id="clip0_5_88">
<path d="M25 35C25 22.8497 34.8497 13 47 13C59.1503 13 69 22.8497 69 35C69 47.1503 59.1503 57 47 57C34.8497 57 25 47.1503 25 35Z" fill="white"/>
</clipPath>
</defs>
</svg>
