<svg width="57" height="56" viewBox="0 0 57 56" fill="none" xmlns="http://www.w3.org/2000/svg">
    <rect x="0.572266" width="56" height="56" rx="16" fill="#F3FCFF" />
    <path
        d="M35.5123 22.4199L30.3423 19.4299C29.3523 18.8599 27.8023 18.8599 26.8123 19.4299L21.5923 22.4399C19.5223 23.8399 19.4023 24.0499 19.4023 26.2799V31.7099C19.4023 33.9399 19.5223 34.1599 21.6323 35.5799L26.8023 38.5699C27.3023 38.8599 27.9423 38.9999 28.5723 38.9999C29.2023 38.9999 29.8423 38.8599 30.3323 38.5699L35.5523 35.5599C37.6223 34.1599 37.7423 33.9499 37.7423 31.7199V26.2799C37.7423 24.0499 37.6223 23.8399 35.5123 22.4199ZM28.5723 32.2499C26.7823 32.2499 25.3223 30.7899 25.3223 28.9999C25.3223 27.2099 26.7823 25.7499 28.5723 25.7499C30.3623 25.7499 31.8223 27.2099 31.8223 28.9999C31.8223 30.7899 30.3623 32.2499 28.5723 32.2499Z"
        fill="black" />
</svg>
    