<svg width="24" height="24" viewBox="0 0 24 24" fill="none" xmlns="http://www.w3.org/2000/svg">
    <circle cx="12" cy="12" r="11.7" fill="white" stroke="white" stroke-width="0.6" />
    <g clip-path="url(#clip0_133_519)">
        <path
            d="M17.9382 15.191L15.9572 17.2837C15.9142 17.3291 15.8621 17.3654 15.8042 17.3901C15.7463 17.4149 15.6838 17.4277 15.6207 17.4276H6.22998C6.18517 17.4276 6.14134 17.4147 6.10387 17.3905C6.0664 17.3663 6.03692 17.3319 6.01906 17.2914C6.0012 17.2509 5.99573 17.2062 6.00333 17.1627C6.01093 17.1192 6.03126 17.0788 6.06183 17.0466L8.04429 14.9539C8.08724 14.9086 8.13917 14.8724 8.19688 14.8476C8.2546 14.8229 8.31686 14.81 8.37981 14.8099H17.77C17.8148 14.8099 17.8587 14.8228 17.8962 14.847C17.9336 14.8712 17.9631 14.9057 17.981 14.9462C17.9988 14.9867 18.0043 15.0314 17.9967 15.0749C17.9891 15.1184 17.9688 15.1587 17.9382 15.191ZM15.9572 10.977C15.9142 10.9316 15.8621 10.8953 15.8042 10.8706C15.7463 10.8458 15.6838 10.833 15.6207 10.8331H6.22998C6.18517 10.8331 6.14134 10.846 6.10387 10.8702C6.0664 10.8944 6.03692 10.9288 6.01906 10.9693C6.0012 11.0098 5.99573 11.0545 6.00333 11.098C6.01093 11.1415 6.03126 11.1819 6.06183 11.2142L8.04429 13.3068C8.08724 13.3521 8.13917 13.3883 8.19688 13.4131C8.2546 13.4378 8.31686 13.4507 8.37981 13.4508H17.77C17.8148 13.4508 17.8587 13.4379 17.8962 13.4137C17.9336 13.3895 17.9631 13.355 17.981 13.3145C17.9988 13.274 18.0043 13.2293 17.9967 13.1858C17.9891 13.1423 17.9688 13.102 17.9382 13.0697L15.9572 10.977ZM6.22998 9.47389H15.6207C15.6838 9.47392 15.7463 9.46116 15.8042 9.43639C15.8621 9.41162 15.9142 9.37537 15.9572 9.32992L17.9382 7.23728C17.9688 7.20501 17.9891 7.16464 17.9967 7.12115C18.0043 7.07765 17.9988 7.03292 17.981 6.99244C17.9631 6.95196 17.9336 6.9175 17.8962 6.8933C17.8587 6.8691 17.8148 6.8562 17.77 6.8562H8.37981C8.31686 6.85631 8.2546 6.86914 8.19688 6.8939C8.13917 6.91867 8.08724 6.95484 8.04429 7.00017L6.06234 9.09281C6.0318 9.12505 6.01148 9.16537 6.00386 9.20881C5.99625 9.25226 6.00167 9.29696 6.01947 9.33742C6.03727 9.37788 6.06666 9.41234 6.10406 9.43658C6.14145 9.46082 6.18521 9.47378 6.22998 9.47389Z"
            fill="black" />
    </g>
    <defs>
        <clipPath id="clip0_133_519">
            <rect width="12" height="10.5714" fill="white" transform="translate(6 6.85779)" />
        </clipPath>
    </defs>
</svg>
    