<svg width="16" height="16" viewBox="0 0 16 16" fill="none" xmlns="http://www.w3.org/2000/svg">
<path d="M9.83329 12.1614L12.3768 13.5127C12.8058 13.7406 13.3266 13.448 13.3551 12.9631L13.9323 3.15112C13.9624 2.63916 13.4273 2.28633 12.9686 2.51569L2.57833 7.71084C2.33602 7.83199 2.33177 8.17625 2.57101 8.30335L4.00776 9.06662C4.41208 9.28142 4.61428 9.38884 4.76766 9.54802C4.92104 9.70721 5.01525 9.9074 5.20366 10.3078L6.0204 12.0433C6.08105 12.1722 6.27438 12.129 6.27438 11.9866L6.27435 11.5413C6.27372 10.8372 6.27324 10.2935 6.49175 9.7953C6.70846 9.30117 7.10977 8.92278 7.63743 8.42526L11.4245 4.84866C11.6922 4.59585 12.1141 4.60791 12.3669 4.87558C12.6197 5.14326 12.6077 5.5652 12.34 5.81801L8.63932 9.3131C7.98545 9.93064 7.80681 10.1165 7.71281 10.3308C7.62073 10.5408 7.60775 10.7826 7.60775 11.6569V12.6678C7.60775 12.797 7.77327 12.8507 7.84908 12.746L7.97577 12.571C8.32243 12.0921 8.49576 11.8527 8.76305 11.7938C9.03035 11.7349 9.298 11.8771 9.83329 12.1614Z" fill="#9FE870"/>
</svg>
