<svg width="32" height="32" viewBox="0 0 32 32" fill="none" xmlns="http://www.w3.org/2000/svg">
    <path
        d="M24.9064 18.64L20.6264 14.36L18.0131 11.7333C16.9064 10.6267 15.1064 10.6267 13.9998 11.7333L7.0931 18.64C6.18644 19.5467 6.83977 21.0933 8.10644 21.0933H15.5864H23.8931C25.1731 21.0933 25.8131 19.5467 24.9064 18.64Z"
        fill="black" />
    <path
        d="M24.9064 18.64L20.6264 14.36L18.0131 11.7333C16.9064 10.6267 15.1064 10.6267 13.9998 11.7333L7.0931 18.64C6.18644 19.5467 6.83977 21.0933 8.10644 21.0933H15.5864H23.8931C25.1731 21.0933 25.8131 19.5467 24.9064 18.64Z"
        fill="url(#paint0_linear_133_507)" />
    <defs>
        <linearGradient id="paint0_linear_133_507" x1="8.53696" y1="21.0933" x2="17.7982"
            y2="18.1549" gradientUnits="userSpaceOnUse">
            <stop stop-color="#24DA24" />
            <stop offset="1" stop-color="#53ED53" />
        </linearGradient>
    </defs>
</svg>
    