<svg width="16" height="16" viewBox="0 0 16 16" fill="none" xmlns="http://www.w3.org/2000/svg">
<path d="M2.41843 2.53798C2.24813 2.31903 2.40416 2 2.68155 2H4.01455C4.42601 2 4.81442 2.18996 5.06703 2.51475L13.5816 13.462C13.7519 13.681 13.5958 14 13.3185 14H11.9854C11.574 14 11.1856 13.81 10.933 13.4853L2.41843 2.53798Z" fill="#9FE870"/>
<g opacity="0.5">
<path d="M2.19526 12.8619L5.62038 9.43682C5.76215 9.29504 5.9961 9.30961 6.11919 9.46787L6.53167 9.9982C6.63488 10.1309 6.62313 10.3197 6.50426 10.4386L3.13807 13.8047C2.87772 14.0651 2.45561 14.0651 2.19526 13.8047C1.93491 13.5444 1.93491 13.1223 2.19526 12.8619Z" fill="#9FE870"/>
<path d="M13.8047 3.13807L10.3796 6.56318C10.2379 6.70496 10.0039 6.69039 9.88081 6.53213L9.46833 6.0018C9.36512 5.8691 9.37687 5.68032 9.49574 5.56145L12.8619 2.19526C13.1223 1.93491 13.5444 1.93491 13.8047 2.19526C14.0651 2.45561 14.0651 2.87772 13.8047 3.13807Z" fill="#9FE870"/>
</g>
</svg>
