<svg width="40" height="24" viewBox="0 0 40 24" fill="none" xmlns="http://www.w3.org/2000/svg">
<path fill-rule="evenodd" clip-rule="evenodd" d="M16.1424 12.8537L17.793 12.7184L16.9601 10.5235L16.1424 12.8537ZM21.4918 9.1607C21.5459 9.21121 21.6011 9.27773 21.6576 9.36035C21.7142 9.44305 21.7726 9.52924 21.8329 9.61905L23.9847 12.6747V9.41281C23.9847 9.20088 24.0306 9.03811 24.1223 8.92453C24.1247 8.92159 24.1274 8.91901 24.1298 8.91611L21.478 9.14898C21.4825 9.15299 21.4874 9.15657 21.4918 9.1607ZM21.478 9.14898C21.475 9.14643 21.4732 9.1448 21.4718 9.14357C21.4743 9.14584 21.478 9.14898 21.478 9.14898ZM14.8823 8.84354L15.4672 8.79097C15.6524 8.77428 15.7771 8.64361 15.7771 8.46622V5.29738C15.7771 5.14903 15.836 5.00561 15.9483 4.87622C16.0611 4.75339 16.2011 4.68384 16.3649 4.6691L17.1514 4.5984C17.3089 4.58426 17.4441 4.63023 17.5576 4.73995C17.6714 4.84367 17.7286 4.97243 17.7286 5.12193V8.29073C17.7286 8.46817 17.8536 8.57638 18.0388 8.55972L18.6336 8.50624C18.6631 8.50357 18.6916 8.49439 18.7186 8.48021C18.8958 8.38626 18.9333 8.26669 18.9333 8.18244V5.0136C18.9333 4.86466 18.9921 4.72128 19.1046 4.5924C19.2174 4.46953 19.3575 4.40003 19.5211 4.38532L20.3074 4.31463C20.4664 4.30032 20.6028 4.34626 20.7239 4.45526C20.8378 4.55898 20.8952 4.6877 20.8952 4.8372V8.00604C20.8952 8.18343 21.0199 8.29168 21.2052 8.27503L21.7897 8.2225C21.9749 8.20581 22.0996 8.07515 22.0996 7.89775V4.72891C22.0996 4.25708 21.9181 3.88457 21.5629 3.62328C21.2192 3.36037 20.7965 3.24997 20.3073 3.29397L19.521 3.36466C19.0574 3.40635 18.6584 3.5719 18.331 3.85751C18.0052 3.63064 17.6091 3.53657 17.1514 3.57774L16.3649 3.64848C15.8801 3.69203 15.4551 3.87801 15.0993 4.20447C14.7549 4.5287 14.5726 4.94417 14.5726 5.40571V8.57455C14.5726 8.75198 14.6971 8.86019 14.8823 8.84354ZM30.6584 6.98335C31.0016 7.24503 31.4238 7.35606 31.9136 7.31203C32.592 7.25103 33.1058 7.13937 33.4876 6.97111C33.6196 6.91142 33.6956 6.80119 33.6956 6.66842V6.28565C33.696 6.03533 33.4858 5.97676 33.337 6.02715C32.9772 6.14545 32.512 6.22902 31.9136 6.28279C31.75 6.29749 31.6099 6.2533 31.497 6.15002C31.3837 6.04622 31.326 5.91532 31.326 5.75946V3.90766C31.326 3.75252 31.3837 3.61057 31.4969 3.4871C31.6104 3.36359 31.7504 3.29404 31.9136 3.27938C32.5112 3.22565 32.9898 3.22561 33.3348 3.27882C33.5046 3.30589 33.6956 3.20451 33.6956 2.95618V2.57329C33.6956 2.44744 33.6278 2.35227 33.4963 2.30708C33.1171 2.20734 32.5992 2.18854 31.9136 2.25022C31.4243 2.29421 30.9983 2.48452 30.6482 2.81531C30.3038 3.13938 30.1215 3.55509 30.1215 4.01595V5.86775C30.1215 6.3362 30.302 6.7111 30.6584 6.98335ZM38.1711 2.12973C37.8272 1.86685 37.4047 1.75646 36.9155 1.80041C36.3028 1.85549 35.8412 1.9352 35.5361 2.04015C35.3185 2.12269 35.295 2.28415 35.295 2.34956V2.7499C35.295 2.82755 35.3157 2.89157 35.356 2.94013C35.4077 3.0016 35.4848 3.03093 35.5736 3.02294C35.5882 3.02163 35.6239 3.01539 35.6383 3.0111C35.8746 2.93957 36.3044 2.87603 36.9155 2.82107C37.073 2.80692 37.2085 2.85294 37.3219 2.96262C37.4359 3.0663 37.4931 3.19505 37.4931 3.34455V3.60934L36.1292 3.73197C35.639 3.77604 35.2135 3.96576 34.8634 4.29651C34.5142 4.62602 34.3369 5.02703 34.3369 5.48864C34.3369 5.95637 34.5175 6.33163 34.8736 6.60432C35.2172 6.86592 35.6394 6.97691 36.1292 6.93292L38.3979 6.72894C38.5744 6.71308 38.6977 6.5796 38.6977 6.40511V3.23622C38.6977 2.77537 38.5155 2.39248 38.1711 2.12973ZM37.4931 5.781L36.1291 5.90364C35.9656 5.91834 35.8256 5.87411 35.7127 5.77083C35.599 5.66707 35.5414 5.53621 35.5414 5.38031C35.5414 5.23069 35.599 5.09157 35.7127 4.96818C35.8256 4.8453 35.9656 4.77576 36.1291 4.76106L37.4931 4.63838V5.781ZM28.1038 9.41181L27.3651 9.47233V13.1945L28.213 13.125C28.3989 13.1097 28.5447 13.0928 28.6502 13.0742C28.7557 13.0555 28.865 13.0216 28.978 12.9724C29.0911 12.9233 29.1891 12.8592 29.272 12.78C29.6463 12.4351 29.8335 11.8786 29.8335 11.1105C29.8335 10.5694 29.7512 10.1708 29.5867 9.91499C29.4221 9.65915 29.2192 9.50436 28.978 9.45052C28.7369 9.39675 28.4454 9.3838 28.1038 9.41181ZM12.3806 3.17558L13.3588 3.0876C13.5441 3.07091 13.6687 2.94041 13.6687 2.76289V2.31765C13.6687 2.17475 13.5727 2.0392 13.3588 2.05847L12.3806 2.14642C12.1667 2.16565 12.071 2.31845 12.071 2.46135V2.90659C12.071 3.08414 12.1954 3.19223 12.3806 3.17558ZM22.7004 3.45936C22.7699 3.42153 22.8274 3.36999 22.8738 3.31149L24.0569 4.52179L23.3512 4.75883C23.3288 4.69088 23.2883 4.62968 23.2286 4.5841C23.0541 4.45065 22.7917 4.49317 22.6413 4.67943C22.4914 4.86565 22.5106 5.12479 22.6849 5.25831C22.859 5.39164 23.1221 5.34856 23.2717 5.1625C23.3131 5.11152 23.3404 5.05517 23.3561 4.99683L24.0641 5.3242C24.064 5.33815 24.062 5.35178 24.062 5.36569C24.062 6.87033 25.2907 7.97969 26.8064 7.84339C28.3223 7.70708 29.5512 6.37673 29.5512 4.87209C29.5512 3.36744 28.3222 2.2582 26.8064 2.39451C26.2383 2.44561 25.7104 2.6645 25.2726 2.99755L24.6747 2.58625C24.7188 2.5177 24.7473 2.4389 24.7515 2.35465C24.7632 2.11133 24.5747 1.92181 24.3299 1.93155C24.0859 1.9422 23.8781 2.14832 23.8661 2.39216C23.8546 2.63545 24.0431 2.82496 24.2875 2.81435C24.3543 2.81181 24.4178 2.79337 24.476 2.76452L24.6068 3.57949L22.9899 3.03467C23.0006 2.94525 22.9887 2.85409 22.9488 2.77132C22.8322 2.52982 22.5319 2.44637 22.278 2.58466C22.0242 2.72295 21.913 3.03133 22.0297 3.27278C22.146 3.51428 22.4471 3.59805 22.7004 3.45936ZM27.4157 6.04749C27.6169 6.02941 27.7794 6.1772 27.7794 6.37606C27.7794 6.57575 27.6169 6.75219 27.4157 6.77031C27.2144 6.78839 27.0518 6.64116 27.0518 6.44151C27.0519 6.24261 27.2144 6.06561 27.4157 6.04749ZM26.1499 6.16135C26.3513 6.14323 26.514 6.29098 26.514 6.48983C26.514 6.68948 26.3513 6.86596 26.1499 6.88408C25.9486 6.9022 25.7861 6.75493 25.7861 6.55532C25.7861 6.35643 25.9486 6.17939 26.1499 6.16135ZM28.9353 8.49292C28.9259 8.49261 28.9218 8.49245 28.9205 8.49241C28.9226 8.49249 28.9293 8.49272 28.9353 8.49292ZM26.6766 8.67545C26.6543 8.6824 26.6326 8.68979 26.6121 8.69806L26.6766 8.69237V8.67545ZM28.9445 8.4932C28.9418 8.49312 28.9405 8.49308 28.9383 8.493C28.9417 8.49312 28.9445 8.4932 28.9445 8.4932ZM36.0254 12.3615C36.0231 12.3669 36.0206 12.3729 36.0178 12.3796C36.0193 12.3759 36.0221 12.3691 36.0254 12.3615ZM35.1359 13.3094C34.8043 13.4862 34.4111 13.5932 33.9564 13.6305C33.4112 13.6752 32.9615 13.6098 32.6072 13.4343C32.356 13.3078 32.1518 13.1281 31.9948 12.8953C31.8378 12.6626 31.7593 12.4302 31.7593 12.1983C31.7593 12.0636 31.8064 11.9444 31.9005 11.8407C31.9947 11.737 32.1147 11.6791 32.2605 11.6671C32.3785 11.6575 32.4784 11.6867 32.56 11.7548C32.6417 11.8229 32.7114 11.9282 32.7692 12.0706C32.8395 12.2394 32.9155 12.3791 32.9972 12.4896C33.0788 12.6002 33.1937 12.6874 33.342 12.7512C33.4902 12.8152 33.6849 12.8372 33.9261 12.8175C34.2578 12.7902 34.5272 12.6915 34.7345 12.5211C34.9418 12.3508 35.0454 12.1509 35.0454 11.9214C35.0454 11.7395 34.9895 11.5963 34.8777 11.4919C34.7659 11.3876 34.6215 11.3128 34.4443 11.2675C34.2672 11.2221 34.0304 11.1779 33.734 11.1349C33.3369 11.0753 33.0047 10.9945 32.7371 10.8931C32.4696 10.7915 32.2573 10.6406 32.1003 10.4402C31.9432 10.2399 31.8647 9.98139 31.8647 9.66463C31.8647 9.36289 31.9476 9.08802 32.1135 8.84C32.2793 8.59203 32.5192 8.39214 32.8332 8.24046C32.9212 8.19798 33.014 8.16058 33.1107 8.12728L28.9444 8.4932C29.0969 8.49813 29.2378 8.51148 29.3662 8.53397C29.6375 8.58158 29.8837 8.69233 30.1048 8.86623C30.6801 9.30789 30.9678 10.0275 30.9678 11.025C30.9678 11.3541 30.9388 11.6571 30.8811 11.9336C30.8233 12.2102 30.7341 12.4625 30.6136 12.6906C30.4929 12.9187 30.3384 13.1265 30.15 13.314C30.0017 13.4584 29.8397 13.5776 29.6639 13.6719C29.488 13.7661 29.2989 13.8377 29.0966 13.8866C28.8944 13.9356 28.6664 13.9705 28.4127 13.9914L26.9542 14.1109C26.7507 14.1276 26.5974 14.1097 26.4945 14.057C26.3914 14.0044 26.3242 13.9238 26.2928 13.8154C26.2614 13.707 26.2457 13.5643 26.2457 13.3872V9.36583C26.2457 9.12641 26.2997 8.94869 26.4078 8.83261C26.4601 8.77638 26.5284 8.73172 26.6119 8.6981L24.8622 8.85181C24.866 8.85562 24.8702 8.85896 24.874 8.86294C24.9669 8.96137 25.0134 9.11651 25.0134 9.32844V13.6416C25.0134 14.1229 24.8124 14.38 24.4105 14.4129C24.31 14.4212 24.2195 14.4142 24.1392 14.3922C24.0587 14.3701 23.9833 14.3308 23.9131 14.2742C23.8427 14.2176 23.7774 14.1501 23.7171 14.0714C23.6568 13.9928 23.5965 13.9124 23.5362 13.83L21.4371 10.8074V14.0208C21.4371 14.2302 21.3881 14.3926 21.2901 14.5078C21.1922 14.6231 21.0665 14.6871 20.9133 14.6996C20.755 14.7126 20.6281 14.6687 20.5327 14.5681C20.4371 14.4674 20.3895 14.3136 20.3895 14.1066V9.87577C20.3895 9.69623 20.4095 9.55372 20.4497 9.44809C20.484 9.36472 20.5347 9.29081 20.6014 9.22595L17.5006 9.49832C17.542 9.53226 17.5786 9.57065 17.6102 9.61353C17.6742 9.70056 17.7282 9.79529 17.7722 9.89762C17.8161 10.0001 17.8721 10.137 17.9399 10.3085L19.3833 13.7289C19.4964 13.989 19.5529 14.1801 19.5529 14.3024C19.5529 14.4295 19.4994 14.5505 19.3927 14.6653C19.2859 14.7799 19.1572 14.8435 19.0064 14.8559C18.9185 14.8631 18.8431 14.8537 18.7804 14.8277C18.7175 14.8016 18.6648 14.7636 18.6221 14.7135C18.5793 14.6633 18.5335 14.5848 18.4845 14.4778C18.4355 14.3709 18.3934 14.2764 18.3582 14.1945L18.0945 13.5279L15.8484 13.7119L15.5846 14.4369C15.4815 14.7197 15.3936 14.912 15.3208 15.014C15.2479 15.1159 15.1286 15.1738 14.9628 15.1873C14.822 15.1988 14.6977 15.1579 14.5897 15.0645C14.4816 14.9711 14.4277 14.8596 14.4277 14.7299C14.4277 14.6551 14.4402 14.5768 14.4653 14.4949C14.4904 14.413 14.5319 14.2986 14.5897 14.1518L16.0029 10.4747C16.043 10.3692 16.0914 10.2424 16.148 10.0943C16.2045 9.94634 16.2648 9.82232 16.3289 9.72225C16.359 9.67516 16.3938 9.63189 16.4329 9.59207L12.8073 9.91054C12.8381 9.91948 12.8683 9.9291 12.8976 9.93995C13.0709 9.99808 13.2241 10.089 13.3574 10.2127C13.4905 10.3365 13.5916 10.4847 13.6607 10.6573C13.7298 10.83 13.7644 11.016 13.7644 11.2155C13.7644 11.6245 13.6481 11.9608 13.4157 12.2242C13.1833 12.4877 12.831 12.6899 12.3587 12.8309C12.5571 12.9193 12.7469 13.0584 12.9278 13.248C13.1087 13.4377 13.27 13.6421 13.412 13.8611C13.5539 14.0802 13.6645 14.2794 13.7436 14.4586C13.8228 14.638 13.8623 14.7626 13.8623 14.8323C13.8623 14.9047 13.8391 14.9783 13.7926 15.0532C13.7461 15.1281 13.6827 15.1894 13.6023 15.2371C13.5219 15.2848 13.429 15.313 13.3234 15.3217C13.1978 15.332 13.0922 15.3113 13.0069 15.2597C12.9214 15.2081 12.8479 15.1399 12.7864 15.0552C12.7248 14.9705 12.6413 14.8452 12.5358 14.6792L12.0873 13.9753C11.9265 13.7167 11.7827 13.5215 11.6559 13.3897C11.529 13.258 11.4002 13.1713 11.2696 13.1296C11.1389 13.0879 10.9743 13.0752 10.7759 13.0915L10.384 13.1237V14.8856C10.384 15.1175 10.3324 15.2926 10.2295 15.4107C10.1264 15.5289 9.99204 15.5948 9.82623 15.6084C9.64781 15.623 9.50967 15.5769 9.41166 15.4703C9.31369 15.3636 9.26473 15.1993 9.26473 14.9773V10.7577C9.26473 10.5183 9.31869 10.3406 9.42675 10.2245C9.43287 10.2179 9.43999 10.212 9.44651 10.2058L7.23464 10.4C7.28772 10.4191 7.33897 10.4409 7.38797 10.4664C7.51859 10.533 7.63416 10.6215 7.73469 10.7316C7.83514 10.8419 7.91179 10.9666 7.96455 11.1056C8.01732 11.2447 8.04372 11.394 8.04372 11.5536C8.04372 12.1023 7.76729 12.5264 7.21463 12.8261C7.94067 12.996 8.30375 13.4127 8.30375 14.076C8.30375 14.3827 8.22458 14.6655 8.06632 14.924C7.90803 15.1827 7.69448 15.3816 7.4257 15.5208C7.25736 15.6045 7.0639 15.6696 6.84532 15.7162C6.62673 15.7628 6.37171 15.798 6.08028 15.8219L4.39194 15.9603C4.14819 15.9803 3.97422 15.9403 3.87 15.8403C3.85996 15.8307 3.85052 15.8202 3.84144 15.8093V16.0264C3.84144 16.0264 3.86232 16.0665 3.90297 16.077C5.28763 16.4373 29.5808 22.7595 29.5808 22.7595L36.0164 12.6914V12.3827C35.9814 12.466 35.9404 12.5474 35.8915 12.6265C35.7194 12.905 35.4675 13.1326 35.1359 13.3094ZM7.23464 10.4C7.23228 10.3992 7.23104 10.3988 7.2292 10.3981C7.23224 10.3992 7.23464 10.4 7.23464 10.4ZM13.1673 3.93599L12.5724 3.98952C12.3584 4.00875 12.2625 4.16207 12.2625 4.30513V8.7823C12.2625 8.9597 12.3871 9.06795 12.5724 9.0513L13.1673 8.99781C13.3524 8.98116 13.477 8.8505 13.477 8.67306V4.19589C13.477 4.05286 13.3812 3.91672 13.1673 3.93599ZM35.9636 9.08675C35.91 9.08675 35.908 9.12474 35.908 9.12474C35.9081 9.12939 35.9085 9.13404 35.9085 9.13872C35.9085 9.27094 35.8614 9.39385 35.7671 9.50754C35.6729 9.62132 35.5555 9.68391 35.4148 9.69543C35.2867 9.70592 35.1892 9.68212 35.1227 9.62394C35.0561 9.56584 34.9839 9.46765 34.906 9.32935C34.8055 9.13066 34.6849 8.97905 34.5442 8.87458C34.4035 8.77018 34.1774 8.73068 33.8659 8.75623C33.5769 8.77996 33.3439 8.86206 33.1668 9.00242C32.9896 9.14294 32.9011 9.30166 32.9011 9.47873C32.9011 9.58849 32.9312 9.68077 32.9916 9.75564C33.0519 9.83054 33.1347 9.8923 33.2403 9.94098C33.3458 9.98978 33.4526 10.0259 33.5606 10.0494C33.6686 10.073 33.847 10.1058 34.0958 10.1477C34.4072 10.1946 34.6893 10.2512 34.9418 10.3178C35.1943 10.3844 35.4091 10.4728 35.5862 10.5829C35.7633 10.6931 35.9015 10.8395 36.0007 11.0222C36.0063 11.0324 36.0111 11.0433 36.0164 11.0539V9.12478C36.0164 9.1247 36.0094 9.08675 35.9636 9.08675ZM5.70192 9.37223V6.20339C5.70192 5.74253 5.51978 5.35965 5.17514 5.09689C4.83126 4.83402 4.40858 4.72362 3.91957 4.76757C3.30687 4.82265 2.84526 4.90237 2.53995 5.00732C2.3224 5.0899 2.29904 5.25132 2.29904 5.31673V5.71706C2.29904 5.79471 2.31976 5.85873 2.35985 5.90729C2.41153 5.96877 2.48886 5.9981 2.57759 5.99011C2.59219 5.9888 2.62787 5.98256 2.64216 5.97827C2.87886 5.9067 3.30839 5.84319 3.91957 5.78823C4.07687 5.77409 4.21248 5.82011 4.32613 5.92979C4.43974 6.0335 4.49711 6.16222 4.49711 6.31172V6.57654L3.13329 6.69914C2.64332 6.74321 2.21759 6.93292 1.86768 7.26359C1.51808 7.59319 1.34082 7.9942 1.34082 8.45577C1.34082 8.9235 1.52152 9.29911 1.87788 9.5714C2.22119 9.83305 2.64352 9.94404 3.13329 9.90001L5.40196 9.69603C5.57862 9.68017 5.70192 9.54669 5.70192 9.37223ZM4.49707 8.74817L3.13325 8.8708C2.96967 8.88551 2.82946 8.84132 2.71684 8.73799C2.60283 8.63428 2.54547 8.50333 2.54547 8.34748C2.54547 8.19786 2.60283 8.05873 2.71684 7.93534C2.82946 7.81251 2.96967 7.74293 3.13325 7.72822L4.49707 7.60559V8.74817ZM10.384 12.3269L11.3864 12.2448C11.6552 12.2227 11.8814 12.1812 12.0647 12.1199C12.2481 12.0588 12.3882 11.9688 12.4849 11.8498C12.5816 11.731 12.63 11.5742 12.63 11.3797C12.63 11.2276 12.591 11.0967 12.5132 10.9871C12.4353 10.8775 12.3272 10.7997 12.1891 10.7537C12.0584 10.7096 11.8009 10.7032 11.4165 10.7347L10.3839 10.8193V12.3269H10.384ZM7.1167 9.54188L7.70165 9.48926C7.88682 9.47261 8.01112 9.34199 8.01112 9.16456V5.99571C8.01112 5.84741 8.06996 5.70399 8.1825 5.57448C8.29531 5.45168 8.43532 5.38214 8.5989 5.36744L9.38562 5.2967C9.54312 5.28255 9.67817 5.32861 9.79178 5.43825C9.90556 5.54197 9.96296 5.67069 9.96296 5.82019V8.98903C9.96296 9.16642 10.0876 9.27467 10.2728 9.25806L10.868 9.20449C11.0443 9.18868 11.1676 9.05515 11.1676 8.8807V5.71186C11.1676 5.24007 10.986 4.8676 10.6309 4.60627C10.2873 4.34336 9.86835 4.23264 9.38562 4.27604L8.5989 4.34678C8.11449 4.39037 7.68928 4.57635 7.33349 4.90281C6.98905 5.22704 6.80683 5.64251 6.80683 6.10404V9.27288C6.80687 9.45024 6.93148 9.55853 7.1167 9.54188ZM6.87544 13.5085C6.6795 13.3999 6.38675 13.3615 5.99739 13.3934L4.83291 13.4889V15.0899L6.03507 14.9914C6.79127 14.9294 7.16943 14.6279 7.16943 14.0866C7.16939 13.8099 7.07142 13.6172 6.87544 13.5085ZM4.83286 12.6921L5.85793 12.6081C6.1368 12.5853 6.35218 12.5414 6.50424 12.4765C6.65622 12.4117 6.77243 12.3025 6.85284 12.1487C6.9156 12.0388 6.94705 11.919 6.94705 11.7894C6.94705 11.5125 6.84776 11.3368 6.64933 11.262C6.45087 11.1872 6.14812 11.1665 5.74112 11.1999L4.83291 11.2743V12.6921H4.83286Z" fill="#57803E"/>
</svg>
