<svg width="78" height="20" viewBox="0 0 78 20" fill="none" xmlns="http://www.w3.org/2000/svg">
<g clip-path="url(#clip0_40000044_17525)">
<path d="M18.8879 5.0362L18.46 4.28921C18.3411 4.07235 18.0796 4.00006 17.8656 4.12054C17.8419 4.14464 17.7943 4.16873 17.7706 4.19283L16.7958 5.18078C16.6532 5.32536 16.6294 5.56632 16.7483 5.735C17.1049 6.28921 17.3902 6.89162 17.6041 7.51813C18.9592 11.5904 16.7958 16.0001 12.7782 17.3736C11.9936 17.6386 11.1616 17.7832 10.3295 17.7832C9.06951 17.7832 7.8333 17.4699 6.73973 16.8675L8.40386 15.1808C11.2329 16.2651 14.3947 14.8193 15.4645 11.9519C15.9876 10.5302 15.9162 8.93982 15.2744 7.56632C15.1793 7.34946 14.9178 7.25307 14.68 7.34946C14.6325 7.37355 14.5849 7.39765 14.5612 7.44584L13.5627 8.43379C13.4438 8.55428 13.42 8.69885 13.4438 8.84343L13.5389 9.20488C13.943 10.988 12.8495 12.7952 11.0902 13.2049C10.282 13.3976 9.42612 13.2772 8.71291 12.8434L8.285 12.5784C8.11858 12.482 7.90462 12.5061 7.76198 12.6507L3.72051 16.747C3.5541 16.9157 3.5541 17.2049 3.72051 17.3736C3.74429 17.3976 3.74429 17.3976 3.76806 17.4217L4.36239 17.8796C6.0503 19.2772 8.16613 20.0001 10.3295 20.0001C15.7736 20.0001 20.1954 15.5181 20.1954 9.97596C20.1954 8.24102 19.7437 6.55428 18.8879 5.0362Z" fill="#57803E"/>
<path d="M16.3207 2.07229C14.609 0.722892 12.4932 0 10.3298 0C4.88571 0 0.463867 4.48193 0.463867 10.0241C0.463867 11.759 0.915561 13.4699 1.74763 14.9639L2.17555 15.7108C2.29441 15.9277 2.55592 16 2.76988 15.8795C2.79365 15.8554 2.8412 15.8313 2.86497 15.8072L3.83968 14.8193C3.98232 14.6747 4.00609 14.4337 3.88723 14.2651C3.53063 13.7108 3.24535 13.1084 3.03139 12.4819C1.67631 8.40964 3.83968 4 7.85738 2.62651C8.6419 2.36145 9.47396 2.21687 10.306 2.21687C11.566 2.21687 12.8022 2.53012 13.8958 3.13253L12.2317 4.81928C9.40264 3.73494 6.24079 5.18072 5.17099 8.04819C4.93325 8.6747 4.81439 9.3494 4.81439 10.0241C4.81439 10.1205 4.83816 10.5301 4.83816 10.6024C4.90948 11.2289 5.0759 11.8554 5.36118 12.4337C5.45627 12.6506 5.71778 12.747 5.95551 12.6506C6.00306 12.6265 6.0506 12.6024 6.07438 12.5542L7.07286 11.5422C7.19172 11.4217 7.2155 11.2771 7.19172 11.1325L7.1204 10.7711C6.71626 8.98795 7.80983 7.18072 9.56906 6.77108C10.3773 6.57831 11.2332 6.6988 11.9464 7.13253L12.3743 7.39759C12.5407 7.49398 12.7547 7.46988 12.8973 7.3253L16.9388 3.22892C17.1052 3.06024 17.1052 2.77108 16.9388 2.60241C16.915 2.57831 16.915 2.57831 16.8912 2.55422L16.3207 2.07229Z" fill="#57803E"/>
<path d="M32.9382 12.7709C32.7956 12.6504 32.5578 12.6504 32.4152 12.795C31.7733 13.301 31.0364 13.7589 29.9666 13.7589C27.9934 13.7589 26.4006 12.0721 26.4006 10.0239C26.4006 7.97574 27.9934 6.2649 29.9666 6.2649C30.8224 6.2649 31.7258 6.62634 32.4152 7.22875C32.4865 7.32514 32.6054 7.37333 32.7243 7.37333C32.8194 7.37333 32.9145 7.30104 32.9858 7.22875L33.6277 6.55405C33.699 6.48176 33.7465 6.36128 33.7465 6.2408C33.7465 6.12032 33.699 6.02393 33.6039 5.92755C32.4865 4.93959 31.3692 4.50586 29.9666 4.50586C26.9711 4.50586 24.5225 6.98779 24.5225 10.048C24.5225 13.0842 26.9473 15.5661 29.9666 15.5661C31.3454 15.5902 32.6529 15.036 33.6277 14.0721C33.7227 13.9757 33.7703 13.8553 33.7465 13.7348C33.7465 13.6384 33.699 13.542 33.6277 13.4697L32.9382 12.7709Z" fill="#57803E"/>
<path d="M37.5976 4.62695H36.6229C36.4089 4.62695 36.2188 4.81972 36.2188 5.03659V14.9643C36.2188 15.1812 36.4089 15.3739 36.6229 15.3739H37.5976C37.8116 15.3739 38.0018 15.1812 38.0018 14.9643V5.03659C38.0018 4.81972 37.8353 4.62695 37.5976 4.62695Z" fill="#57803E"/>
<path d="M49.0799 7.97635C49.0799 6.14502 47.5821 4.62695 45.7516 4.62695H41.7577C41.5199 4.62695 41.3535 4.81972 41.3535 5.03659V14.9643C41.3535 15.2053 41.5437 15.3739 41.7577 15.3739H42.7086C42.9226 15.3739 43.1127 15.1812 43.1127 14.9643V11.2776H45.1097L47.0353 15.1812C47.1067 15.3017 47.2493 15.398 47.3919 15.398H48.5331C48.6757 15.398 48.8183 15.3257 48.8897 15.2053C48.961 15.0607 48.961 14.9161 48.8897 14.7715L46.9403 11.0848C48.2716 10.4824 49.0799 9.30165 49.0799 7.97635ZM47.2731 8.00045C47.2731 8.94021 46.5123 9.73539 45.6089 9.73539H43.1127V6.36189H45.6327C46.5123 6.3378 47.2731 7.10888 47.2731 8.00045Z" fill="#57803E"/>
<path d="M59.5167 12.7709C59.374 12.6504 59.1363 12.6504 58.9937 12.795C58.3518 13.301 57.6148 13.7589 56.545 13.7589C54.5718 13.7589 52.979 12.0721 52.979 10.0239C52.979 7.97574 54.5718 6.2649 56.5212 6.2649C57.3771 6.2649 58.2805 6.62634 58.9699 7.22875C59.0412 7.32514 59.1601 7.37333 59.279 7.37333C59.374 7.37333 59.4691 7.30104 59.5405 7.22875L60.1823 6.55405C60.2537 6.48176 60.3012 6.36128 60.3012 6.2408C60.3012 6.12032 60.2537 6.02393 60.1586 5.92755C59.0412 4.93959 57.9239 4.50586 56.5212 4.50586C53.5258 4.50586 51.0771 6.98779 51.0771 10.048C51.0771 13.0842 53.502 15.5661 56.5212 15.5661C57.9001 15.5902 59.2076 15.036 60.1823 14.0721C60.2774 13.9757 60.325 13.8553 60.3012 13.7348C60.3012 13.6384 60.2537 13.542 60.1823 13.4697L59.5167 12.7709Z" fill="#57803E"/>
<path d="M68.4321 13.7113H64.5809V5.03659C64.5809 4.81972 64.3907 4.62695 64.1767 4.62695H63.202C62.9643 4.62695 62.7979 4.81972 62.7979 5.03659V14.9643C62.7979 15.2053 62.988 15.3739 63.202 15.3739H68.4321C68.6699 15.3739 68.8363 15.1812 68.8363 14.9643V14.145C68.8363 13.9041 68.6699 13.7113 68.4321 13.7113Z" fill="#57803E"/>
<path d="M77.1326 6.31304C77.3703 6.31304 77.5368 6.12027 77.5368 5.9034V5.06003C77.5368 4.81907 77.3466 4.65039 77.1326 4.65039H71.2606C71.0229 4.65039 70.8564 4.84316 70.8564 5.06003V14.9877C70.8564 15.2287 71.0466 15.3974 71.2606 15.3974H77.1326C77.3703 15.3974 77.5368 15.2046 77.5368 14.9877V14.1685C77.5368 13.9275 77.3466 13.7588 77.1326 13.7588H72.6157V10.7709H76.3956C76.6334 10.7709 76.7998 10.5781 76.7998 10.3612V9.51786C76.7998 9.30099 76.6096 9.10822 76.3956 9.10822H72.6157V6.31304H77.1326Z" fill="#57803E"/>
</g>
<defs>
<clipPath id="clip0_40000044_17525">
<rect width="77.0732" height="20" fill="white" transform="translate(0.463867)"/>
</clipPath>
</defs>
</svg>
