<svg width="102" height="20" viewBox="0 0 102 20" fill="none" xmlns="http://www.w3.org/2000/svg">
<g clip-path="url(#clip0_40000044_17476)">
<path d="M3.01816 20C6.08136 20 8.3834 17.3346 9.75715 15.2283C9.5901 15.6943 9.49729 16.1603 9.49729 16.6077C9.49729 17.8379 10.2027 18.7139 11.5951 18.7139C13.5073 18.7139 15.5494 17.0363 16.6076 15.2283C16.5334 15.4893 16.4963 15.7316 16.4963 15.9553C16.4963 16.8127 16.979 17.3532 17.9628 17.3532C21.0632 17.3532 24.1821 11.8546 24.1821 7.04567C24.1821 3.29916 22.2884 0 17.5359 0C9.18165 0 0.177734 10.2144 0.177734 16.8127C0.177734 19.4036 1.57009 20 3.01816 20ZM14.6583 6.6356C14.6583 5.70363 15.1781 5.05126 15.9393 5.05126C16.6819 5.05126 17.2017 5.70363 17.2017 6.6356C17.2017 7.56757 16.6819 8.23858 15.9393 8.23858C15.1781 8.23858 14.6583 7.56757 14.6583 6.6356ZM18.6312 6.6356C18.6312 5.70363 19.151 5.05126 19.9122 5.05126C20.6547 5.05126 21.1745 5.70363 21.1745 6.6356C21.1745 7.56757 20.6547 8.23858 19.9122 8.23858C19.151 8.23858 18.6312 7.56757 18.6312 6.6356Z" fill="#57803E"/>
<path d="M27.8945 17.9687H30.6793V15.2287C30.6793 13.9427 30.5679 13.458 29.9181 12.1533L30.2708 11.9668C31.2176 14.185 32.5544 14.9864 33.9281 14.9864C36.1373 14.9864 37.901 13.0479 37.901 10.047C37.901 7.17656 36.2858 5.07031 33.9652 5.07031C32.5915 5.07031 31.2176 5.85317 30.2708 8.08989L29.9181 7.90349C30.3637 7.0088 30.6793 6.17004 30.6793 5.36854H27.8945V17.9687ZM30.6793 10.0284C30.6793 8.79819 31.6075 7.43751 32.9813 7.43751C34.0952 7.43751 35.0049 8.35084 35.0049 10.0097C35.0049 11.65 34.1323 12.6193 32.9627 12.6193C31.6632 12.6193 30.6793 11.2959 30.6793 10.0284Z" fill="#57803E"/>
<path d="M38.917 14.6868H41.7017V11.4063C41.7017 9.09503 42.5186 7.45478 44.0409 7.45478C45.0063 7.45478 45.3033 8.10716 45.3033 9.72878V14.6868H48.0881V9.28146C48.0881 6.33643 47.0298 5.06894 45.0063 5.06894C42.927 5.06894 42.2401 6.4669 41.4418 8.16308L41.0891 7.97669C41.5718 6.93288 41.7017 6.29915 41.7017 5.36718V2.14258H38.917V14.6868Z" fill="#57803E"/>
<path d="M52.158 14.9864C53.9588 14.9864 55.017 13.7935 55.8152 12.2651L56.1494 12.4328C55.7966 13.1598 55.4625 13.9985 55.4625 14.6882H58.1916V9.61828C58.1916 6.59874 56.9291 5.07031 53.9773 5.07031C51.0812 5.07031 49.6517 6.52419 49.3733 8.05261L52.0466 8.51859C52.1394 7.7171 52.7892 7.17656 53.8288 7.17656C54.8685 7.17656 55.4625 7.69846 55.4625 8.3322C55.4625 8.96596 54.8499 9.26417 53.2162 9.28283C50.8027 9.32006 49.0205 10.1961 49.0205 12.0601C49.0205 13.5885 50.2272 14.9864 52.158 14.9864ZM51.7867 11.8736C51.7867 10.4011 54.1258 11.4263 55.4068 10.2893V10.6248C55.4068 11.9482 54.2373 12.9175 53.0676 12.9175C52.455 12.9175 51.7867 12.6565 51.7867 11.8736Z" fill="#57803E"/>
<path d="M59.2949 14.6882H62.0796V11.4077C62.0796 9.0964 62.8965 7.45615 64.4188 7.45615C65.3842 7.45615 65.6812 8.10853 65.6812 9.73015V14.6882H68.466V9.28283C68.466 6.33779 67.4078 5.07031 65.3842 5.07031C63.3049 5.07031 62.618 6.46827 61.8197 8.16445L61.467 7.97805C61.9497 6.93425 62.0796 6.30052 62.0796 5.36854H59.2949V14.6882Z" fill="#57803E"/>
<path d="M75.8835 14.7238V12.4124C75.2895 12.6175 73.6372 12.9716 73.6372 11.611V7.60353H75.865V5.36681H73.6372V2.86914L70.8339 3.70791V5.36681H69.1631V7.60353H70.8339L70.8525 11.8347C70.8525 14.9474 73.6186 15.3948 75.8835 14.7238Z" fill="#57803E"/>
<path d="M81.5398 14.9864C84.3617 14.9864 86.5152 12.8243 86.5152 10.0097C86.5152 7.21384 84.3617 5.07031 81.5398 5.07031C78.718 5.07031 76.5459 7.21384 76.5459 10.0097C76.5459 12.8243 78.718 14.9864 81.5398 14.9864ZM79.4234 10.0284C79.4234 8.48131 80.296 7.40023 81.5398 7.40023C82.7837 7.40023 83.6377 8.48131 83.6377 10.0284C83.6377 11.5754 82.7837 12.6565 81.5398 12.6565C80.296 12.6565 79.4234 11.5754 79.4234 10.0284Z" fill="#57803E"/>
<path d="M87.3779 14.6882H90.1622V11.4077C90.1622 9.00319 90.9234 7.45615 92.1487 7.45615C92.9474 7.45615 93.2071 8.08989 93.2071 9.73015V14.6882H95.9922V11.4077C95.9922 9.1523 96.8088 7.45615 97.9787 7.45615C98.7577 7.45615 99.0362 8.18309 99.0362 9.73015V14.6882H101.821V9.28283C101.821 6.31915 100.856 5.07031 98.9621 5.07031C96.9944 5.07031 96.2894 6.46827 95.6022 8.18309L95.2676 8.01533C95.9182 6.05821 94.5064 5.07031 93.1142 5.07031C91.2768 5.07031 90.6084 6.46827 89.8659 8.16445L89.5313 7.97805C89.9953 6.93425 90.1622 6.30052 90.1622 5.36854H87.3779V14.6882Z" fill="#57803E"/>
</g>
<defs>
<clipPath id="clip0_40000044_17476">
<rect width="101.644" height="20" fill="white" transform="translate(0.177734)"/>
</clipPath>
</defs>
</svg>
