<svg width="102" height="20" viewBox="0 0 102 20" fill="none" xmlns="http://www.w3.org/2000/svg">
<g clip-path="url(#clip0_40000044_17500)">
<path d="M37.3693 15.3169C41.39 15.3169 42.0565 13.9265 42.0565 12.5693V12.4148C42.0565 10.7817 40.8418 10.0313 37.8317 9.97615L36.4878 9.95407C34.8538 9.92099 34.6388 9.60099 34.6388 9.2479C34.6388 8.89482 34.7785 8.54165 36.7136 8.54165H36.8856C38.9819 8.54165 39.1432 9.21482 39.1969 9.52374H41.7985V9.4134C41.7985 8.17755 40.9385 6.82031 37.1543 6.82031H36.4126C32.7683 6.82031 32.0587 8.10031 32.0587 9.32515V9.42449C32.0587 10.7045 32.9725 11.7417 35.9611 11.83L37.3371 11.8631C39.1862 11.9182 39.4334 12.2162 39.4334 12.6907C39.4334 13.1321 39.1969 13.5624 37.0898 13.5624H36.9393C34.8753 13.5624 34.5958 12.7569 34.5635 12.2603H31.9512V12.3817C31.9512 13.4631 32.4349 15.3169 36.6276 15.3169H37.3693Z" fill="#57803E"/>
<path d="M48.1619 16.8837H51.7955L50.5485 15.2617C54.4616 14.8645 54.9776 12.5693 54.9776 11.2121V10.881C54.9776 9.39132 54.3433 6.82031 49.3552 6.82031H48.8929C43.851 6.82031 43.2598 9.39132 43.2598 10.881V11.2121C43.2598 12.5913 43.8295 15.0741 48.1619 15.2948V16.8837ZM52.3545 11.1127C52.3545 12.0837 51.8063 13.3197 49.1187 13.3197C46.4096 13.3197 45.8828 12.0617 45.8828 11.0907V10.9582C45.8828 9.96515 46.3666 8.80649 49.1187 8.80649C51.8278 8.80649 52.3545 9.97615 52.3545 10.9582V11.1127Z" fill="#57803E"/>
<path d="M61.8156 15.2939C65.9115 15.2939 66.7285 12.4912 66.7285 10.9464V6.96289H64.2237V10.7919C64.2237 11.8512 63.7507 13.1643 61.6006 13.1643C59.4183 13.1643 58.956 11.8512 58.956 10.7919V6.96289H56.4404V10.9464C56.4404 12.4912 57.1392 15.2939 61.4286 15.2939H61.8156Z" fill="#57803E"/>
<path d="M74.1773 11.818H71.1458L72.6293 8.73945L74.1773 11.818ZM75.8544 15.1725H78.5528L74.2741 6.96289H71.0275L66.9854 15.1725H69.5332L70.2535 13.6719H75.1019L75.8544 15.1725Z" fill="#57803E"/>
<path d="M79.665 15.1725H84.976C89.6519 15.1725 90.6085 12.9436 90.6085 11.178V10.847C90.6085 9.00428 89.5985 6.96289 84.9652 6.96289H79.665V15.1725ZM82.1699 8.90495H84.771C87.6527 8.90495 87.986 10.1739 87.986 11.0125V11.0788C87.986 11.9174 87.6094 13.1974 84.771 13.1974H82.1699V8.90495Z" fill="#57803E"/>
<path d="M97.1468 15.3169C101.168 15.3169 101.834 13.9265 101.834 12.5693V12.4148C101.834 10.7817 100.619 10.0313 97.6093 9.97615L96.2652 9.95407C94.631 9.92099 94.416 9.60099 94.416 9.2479C94.416 8.89482 94.556 8.54165 96.491 8.54165H96.6627C98.7593 8.54165 98.9202 9.21482 98.9743 9.52374H101.576V9.4134C101.576 8.17755 100.716 6.82031 96.9318 6.82031H96.1902C92.546 6.82031 91.836 8.10031 91.836 9.32515V9.42449C91.836 10.7045 92.7502 11.7417 95.7385 11.83L97.1143 11.8631C98.9635 11.9182 99.211 12.2162 99.211 12.6907C99.211 13.1321 98.9743 13.5624 96.8668 13.5624H96.7168C94.6527 13.5624 94.3735 12.7569 94.341 12.2603H91.7285V12.3817C91.7285 13.4631 92.2127 15.3169 96.4052 15.3169H97.1468Z" fill="#57803E"/>
<path d="M5.51808 19.4936C5.55861 19.5341 5.60091 19.5723 5.64498 19.6082C5.95424 19.8616 6.34168 20 6.74146 20H13.5925C13.9923 20 14.3797 19.8616 14.689 19.6082C14.7329 19.5721 14.7751 19.5338 14.8159 19.4936L19.6602 14.6492C19.8209 14.4885 19.9483 14.2977 20.0353 14.0878C20.1222 13.8779 20.167 13.6529 20.167 13.4258V6.57457C20.167 6.34736 20.1222 6.12238 20.0353 5.91247C19.9483 5.70255 19.8209 5.51183 19.6602 5.35116L14.8159 0.506739C14.7753 0.46616 14.7329 0.427875 14.689 0.392027C14.3798 0.138551 13.9923 1.98893e-05 13.5925 1.27115e-07H6.74146C6.34147 -0.00015316 5.95378 0.138334 5.6444 0.391884C5.60022 0.427982 5.55787 0.466267 5.5175 0.506596L0.673724 5.35116C0.513069 5.51183 0.38563 5.70255 0.298685 5.91247C0.21174 6.12238 0.16699 6.34736 0.166992 6.57457V13.4258C0.16699 13.6529 0.21174 13.8779 0.298685 14.0878C0.38563 14.2977 0.513069 14.4885 0.673724 14.6492L5.51808 19.4936ZM2.80977 10.0037V4.25294C2.80977 3.82591 2.97941 3.41637 3.28136 3.11441C3.58331 2.81245 3.99284 2.64282 4.41987 2.64282H15.9141C16.3412 2.64286 16.7507 2.8125 17.0526 3.11445C17.3545 3.4164 17.5242 3.82592 17.5242 4.25294V15.7473C17.5242 16.1743 17.3545 16.5839 17.0526 16.8858C16.7507 17.1877 16.3412 17.3574 15.9141 17.3575H4.41987C3.99284 17.3575 3.58331 17.1878 3.28136 16.8859C2.97941 16.5839 2.80977 16.1744 2.80977 15.7473V10.0037Z" fill="#57803E"/>
</g>
<defs>
<clipPath id="clip0_40000044_17500">
<rect width="101.667" height="20" fill="white" transform="translate(0.166992)"/>
</clipPath>
</defs>
</svg>
