<svg width="158" height="20" viewBox="0 0 158 20" fill="none" xmlns="http://www.w3.org/2000/svg">
<path d="M18.5958 3.90097H23.4104V5.76033C23.4104 8.28165 21.3725 10.3195 18.8504 10.3195H18.5956V3.90097H18.5958ZM11.7434 1.20117H18.5958V18.7494H17.7808C12.8133 18.7494 11.8201 15.2854 11.8201 12.2037L11.7434 1.20117ZM0.611328 5.17438C0.611328 8.30716 2.85301 9.4532 5.34955 9.83539H0.611328V18.8004H5.17134C9.7566 18.8004 10.2916 16.7629 10.2916 14.8272C10.2916 12.4586 8.66111 10.8032 6.13936 10.1662H10.2916V1.20117H5.73151C1.14628 1.20117 0.611328 3.23871 0.611328 5.17438Z" fill="#57803E"/>
<path d="M32.9319 16.0325C32.0439 16.0325 31.2285 15.9511 30.4764 15.7793C29.7243 15.6076 29.0719 15.3636 28.5101 15.0474C27.9483 14.731 27.5133 14.3334 27.2052 13.8634C26.8972 13.3936 26.7432 12.8513 26.7432 12.2278C26.7432 12.1645 26.7432 12.1013 26.7432 12.038C26.7432 11.9748 26.7522 11.9205 26.7703 11.8754H30.1411C30.1411 11.9025 30.1411 11.9386 30.1411 11.9838C30.1411 12.02 30.1411 12.0561 30.1411 12.0922C30.1592 12.4628 30.2951 12.761 30.5579 12.996C30.8207 13.231 31.1741 13.3936 31.609 13.4929C32.044 13.5924 32.497 13.6466 32.9772 13.6466C33.4303 13.6466 33.8652 13.6196 34.2911 13.5562C34.717 13.4929 35.0704 13.3664 35.3604 13.1857C35.6503 12.996 35.7863 12.7518 35.7863 12.4446C35.7863 12.0561 35.6141 11.7759 35.2788 11.5862C34.9345 11.3964 34.4724 11.2517 33.8743 11.1433C33.2763 11.0349 32.6058 10.9084 31.8627 10.7728C31.2466 10.6644 30.6486 10.5288 30.0868 10.3571C29.525 10.1854 29.0084 9.96849 28.5644 9.69738C28.1114 9.42626 27.758 9.08288 27.4952 8.64909C27.2324 8.22435 27.0965 7.69115 27.0965 7.05855C27.0965 6.3898 27.2415 5.82045 27.5405 5.34148C27.8395 4.86251 28.2564 4.46488 28.8 4.15762C29.3437 3.85036 29.987 3.62442 30.721 3.47078C31.455 3.32619 32.2524 3.25391 33.1041 3.25391C33.8924 3.25391 34.6446 3.32619 35.3423 3.47078C36.04 3.61538 36.6471 3.83229 37.1545 4.12148C37.671 4.41067 38.0697 4.76313 38.3778 5.19691C38.6858 5.63069 38.8308 6.11869 38.8308 6.66091C38.8308 6.75129 38.8308 6.84163 38.8308 6.91393C38.8308 6.99526 38.8218 7.04951 38.8037 7.10373H35.4329V6.94107C35.4329 6.64284 35.3241 6.40789 35.1157 6.21811C34.9073 6.02833 34.6174 5.89273 34.2549 5.78429C33.8925 5.67584 33.4756 5.63067 33.0135 5.63067C32.7779 5.63067 32.5152 5.64873 32.2252 5.67584C31.9352 5.70295 31.6453 5.75718 31.3734 5.83851C31.1016 5.91985 30.8841 6.02833 30.721 6.16389C30.5579 6.29944 30.4764 6.48016 30.4764 6.69705C30.4764 6.9772 30.6214 7.19413 30.9204 7.3568C31.2194 7.51947 31.609 7.64596 32.0983 7.73634C32.5876 7.82672 33.1132 7.92614 33.6931 8.03458C34.3455 8.17014 34.9979 8.31471 35.6503 8.4593C36.3027 8.6039 36.9008 8.80269 37.4445 9.05573C37.9881 9.29973 38.414 9.66126 38.7221 10.1222C39.0302 10.5831 39.1842 11.2066 39.1842 11.9748C39.1842 12.7158 39.0302 13.3483 38.7312 13.8634C38.4321 14.3787 37.9972 14.8034 37.4445 15.1196C36.8827 15.436 36.2302 15.6619 35.4691 15.8065C34.7079 15.9511 33.8471 16.0325 32.9319 16.0325Z" fill="#57803E"/>
<path d="M45.917 16.031C44.4582 16.031 43.3346 15.6605 42.5282 14.9195C41.7308 14.1785 41.332 13.0126 41.332 11.4131V3.55078H44.7301V10.8618C44.7301 11.3136 44.7844 11.6842 44.8931 11.9914C45.0019 12.2897 45.1649 12.5336 45.3824 12.7234C45.5998 12.9133 45.8626 13.0488 46.1617 13.1301C46.4607 13.2115 46.805 13.2566 47.1946 13.2566C47.7565 13.2566 48.2639 13.1301 48.717 12.8861C49.1701 12.6421 49.5415 12.2897 49.8224 11.8559C50.1034 11.4131 50.2392 10.916 50.2392 10.3557V3.55983H53.6553V15.769H50.8645L50.6107 13.9163H50.4476C50.0762 14.3953 49.6593 14.7929 49.1881 15.1093C48.726 15.4255 48.2095 15.6605 47.6387 15.8141C47.0678 15.9678 46.5061 16.031 45.917 16.031Z" fill="#57803E"/>
<path d="M56.5 20.0004V3.54382H59.2726L59.5717 5.30608H59.7348C60.2151 4.56503 60.8222 4.04088 61.5653 3.72458C62.2992 3.41732 63.1055 3.26367 63.9754 3.26367C65.1082 3.26367 66.0867 3.4896 66.9204 3.94146C67.754 4.39331 68.3883 5.08917 68.8413 6.02903C69.2944 6.96889 69.5118 8.17988 69.5118 9.65293C69.5118 11.0898 69.2854 12.2827 68.8233 13.2226C68.3612 14.1625 67.7359 14.8674 66.9294 15.3372C66.1229 15.7982 65.1806 16.0332 64.0933 16.0332C63.5496 16.0332 63.0241 15.9698 62.5257 15.8433C62.0183 15.7168 61.5561 15.5271 61.1393 15.274C60.7224 15.021 60.36 14.7046 60.0701 14.3341H59.9341V20.0004H56.5ZM62.9879 13.2678C63.6856 13.2678 64.2563 13.1413 64.7094 12.8882C65.1624 12.6352 65.4888 12.2466 65.7062 11.7315C65.9237 11.2163 66.0323 10.6018 66.0323 9.88791V9.427C66.0323 8.68596 65.9237 8.06239 65.7062 7.54727C65.4888 7.04119 65.1534 6.65257 64.7094 6.39953C64.2563 6.14649 63.6764 6.02 62.9607 6.02C62.29 6.02 61.7283 6.15556 61.2753 6.43572C60.8132 6.71587 60.4688 7.11351 60.2241 7.62863C59.9795 8.14374 59.8617 8.75824 59.8617 9.47218V9.7975C59.8617 10.3217 59.9341 10.8097 60.0701 11.2435C60.206 11.6863 60.4054 12.0568 60.6682 12.355C60.931 12.6532 61.239 12.8882 61.6195 13.0418C62.0092 13.1864 62.4622 13.2678 62.9879 13.2678Z" fill="#57803E"/>
<path d="M78.3286 16.0318C76.8516 16.0318 75.6011 15.806 74.5681 15.3451C73.5352 14.8841 72.7469 14.1883 72.2032 13.2485C71.6595 12.3086 71.3877 11.1067 71.3877 9.65169C71.3877 8.19672 71.6595 6.99479 72.2032 6.05493C72.7469 5.11507 73.5262 4.41016 74.5409 3.95831C75.5559 3.50645 76.7881 3.27148 78.2289 3.27148C79.6424 3.27148 80.8386 3.49741 81.8261 3.94927C82.8139 4.40113 83.5569 5.07892 84.0552 6.00071C84.5627 6.9225 84.8073 8.07922 84.8073 9.47094V10.4198H74.8944C74.9216 11.1338 75.0756 11.7212 75.3383 12.1911C75.6011 12.6611 75.9817 13.0045 76.4892 13.2213C76.9965 13.4382 77.6218 13.5467 78.3648 13.5467C78.7363 13.5467 79.0897 13.5014 79.434 13.4202C79.7784 13.3388 80.0865 13.2032 80.3673 13.0225C80.6483 12.8417 80.8838 12.6249 81.065 12.3628C81.2553 12.1008 81.355 11.8025 81.3641 11.4591H84.7801C84.7801 12.1731 84.6171 12.8147 84.2999 13.3841C83.9828 13.9534 83.5478 14.4323 82.9861 14.8209C82.4242 15.2095 81.7537 15.5077 80.9654 15.7156C80.1861 15.9235 79.2982 16.0318 78.3286 16.0318ZM74.9488 8.30516H81.2281C81.2281 7.87138 81.1556 7.49182 81.0106 7.16649C80.8658 6.84115 80.6573 6.57001 80.3945 6.35312C80.1317 6.13623 79.8237 5.98262 79.4612 5.87418C79.1079 5.77477 78.7091 5.72051 78.2742 5.72051C77.6037 5.72051 77.0329 5.81993 76.5616 6.00971C76.0905 6.19949 75.7189 6.49773 75.4561 6.87728C75.2024 7.27492 75.0302 7.74486 74.9488 8.30516Z" fill="#57803E"/>
<path d="M87.2275 15.7522V3.54309H90.0185L90.2993 5.54032H90.4624C90.6164 5.12462 90.843 4.73599 91.142 4.38355C91.4319 4.0311 91.7944 3.75096 92.2202 3.55214C92.6461 3.35333 93.1355 3.25391 93.6702 3.25391C93.951 3.25391 94.2047 3.28103 94.4403 3.32622C94.6759 3.3714 94.8752 3.42561 95.0474 3.48887V6.46207H93.6972C93.1717 6.46207 92.7187 6.54342 92.338 6.70609C91.9576 6.86876 91.6403 7.10375 91.3867 7.40197C91.1329 7.7002 90.9426 8.05263 90.8248 8.4593C90.707 8.86597 90.6528 9.31783 90.6528 9.82391V15.7614H87.2275V15.7522Z" fill="#57803E"/>
<path d="M101.869 16.0318C101.017 16.0318 100.32 15.8963 99.7759 15.6342C99.2322 15.3721 98.8335 14.9835 98.5798 14.4594C98.3261 13.9353 98.1993 13.2936 98.1993 12.5255V6.10006H96.3145V3.55159H98.3351L98.9876 0H101.615V3.55159H104.361V6.10006H101.615V12.0375C101.615 12.4984 101.715 12.8508 101.905 13.0948C102.095 13.3388 102.467 13.4563 103.011 13.4563H104.361V15.6614C104.161 15.7246 103.908 15.7788 103.618 15.833C103.319 15.8872 103.02 15.9325 102.712 15.9686C102.394 16.0047 102.114 16.0318 101.869 16.0318Z" fill="#57803E"/>
<path d="M112.816 16.0318C111.339 16.0318 110.089 15.806 109.056 15.3451C108.023 14.8841 107.234 14.1883 106.691 13.2485C106.147 12.3086 105.875 11.1067 105.875 9.65169C105.875 8.19672 106.147 6.99479 106.691 6.05493C107.234 5.11507 108.014 4.41016 109.028 3.95831C110.043 3.50645 111.276 3.27148 112.716 3.27148C114.13 3.27148 115.326 3.49741 116.314 3.94927C117.301 4.40113 118.044 5.07892 118.543 6.00071C119.05 6.9225 119.295 8.07922 119.295 9.47094V10.4198H109.391C109.418 11.1338 109.572 11.7212 109.835 12.1911C110.098 12.6611 110.478 13.0045 110.986 13.2213C111.493 13.4382 112.118 13.5467 112.861 13.5467C113.233 13.5467 113.586 13.5014 113.93 13.4202C114.275 13.3388 114.583 13.2032 114.864 13.0225C115.145 12.8417 115.38 12.6249 115.561 12.3628C115.752 12.1008 115.851 11.8025 115.861 11.4591H119.277C119.277 12.1731 119.114 12.8147 118.796 13.3841C118.479 13.9534 118.044 14.4323 117.483 14.8209C116.921 15.2095 116.25 15.5077 115.462 15.7156C114.674 15.9235 113.795 16.0318 112.816 16.0318ZM109.436 8.30516H115.716C115.716 7.87138 115.643 7.49182 115.498 7.16649C115.353 6.84115 115.145 6.57001 114.882 6.35312C114.619 6.13623 114.311 5.98262 113.949 5.87418C113.595 5.77477 113.197 5.72051 112.762 5.72051C112.091 5.72051 111.52 5.81993 111.049 6.00971C110.578 6.19949 110.206 6.49773 109.944 6.87728C109.69 7.27492 109.518 7.74486 109.436 8.30516Z" fill="#57803E"/>
<path d="M125.637 16.0325C125.094 16.0325 124.55 15.9782 124.007 15.8697C123.463 15.7613 122.983 15.5805 122.557 15.3365C122.131 15.0925 121.786 14.7401 121.524 14.2792C121.261 13.8273 121.125 13.24 121.125 12.526C121.125 11.6133 121.342 10.8722 121.777 10.3119C122.212 9.7516 122.838 9.32688 123.662 9.03769C124.487 8.7485 125.456 8.55871 126.58 8.46834C127.703 8.37797 128.945 8.33277 130.295 8.33277V7.6098C130.295 7.19409 130.204 6.85067 130.023 6.57956C129.842 6.30844 129.57 6.09159 129.189 5.93796C128.809 5.78433 128.302 5.70298 127.667 5.70298C127.105 5.70298 126.634 5.75721 126.236 5.8747C125.837 5.99218 125.538 6.14581 125.329 6.32655C125.121 6.5073 125.012 6.7332 125.012 6.9772V7.25734H121.66C121.641 7.16697 121.632 7.08563 121.623 7.02237C121.614 6.95911 121.614 6.88685 121.614 6.78745C121.614 6.07351 121.859 5.44995 122.339 4.91676C122.819 4.38357 123.526 3.97685 124.441 3.68766C125.357 3.39848 126.471 3.25391 127.758 3.25391C129.044 3.25391 130.123 3.38948 131.002 3.66963C131.881 3.94978 132.551 4.38357 133.013 4.97098C133.475 5.5584 133.711 6.30847 133.711 7.22122V12.5802C133.711 12.8603 133.784 13.0682 133.929 13.2218C134.074 13.3664 134.255 13.4388 134.472 13.4388H135.451V15.6167C135.279 15.689 135.007 15.7703 134.635 15.8607C134.264 15.9421 133.829 15.9872 133.33 15.9872C132.76 15.9872 132.279 15.915 131.908 15.7703C131.536 15.6257 131.246 15.4269 131.038 15.1649C130.83 14.9028 130.675 14.6135 130.585 14.2702H130.395C130.068 14.6135 129.67 14.9118 129.199 15.1829C128.727 15.454 128.193 15.6619 127.595 15.7975C127.006 15.9601 126.353 16.0325 125.637 16.0325ZM126.661 13.5201C127.114 13.5201 127.549 13.4658 127.975 13.3483C128.401 13.2308 128.782 13.0682 129.126 12.8603C129.47 12.6525 129.742 12.3905 129.96 12.0742C130.177 11.7579 130.286 11.4144 130.286 11.0439V10.3661C129.072 10.3661 128.048 10.4203 127.187 10.5378C126.335 10.6553 125.674 10.8451 125.221 11.1162C124.768 11.3873 124.532 11.7579 124.532 12.2459C124.532 12.5531 124.623 12.8062 124.813 12.987C125.003 13.1767 125.257 13.3122 125.583 13.3936C125.918 13.4839 126.272 13.5201 126.661 13.5201Z" fill="#57803E"/>
<path d="M137.056 15.7517V3.54259H139.846L140.127 5.37715H140.291C140.617 4.89818 141.006 4.50053 141.468 4.18423C141.931 3.86793 142.42 3.63296 142.945 3.48836C143.471 3.34377 144.015 3.27148 144.576 3.27148C145.519 3.27148 146.325 3.43414 146.969 3.76851C147.612 4.10289 148.119 4.6361 148.455 5.37715H148.618C148.962 4.89818 149.361 4.50053 149.814 4.18423C150.267 3.86793 150.774 3.63296 151.327 3.48836C151.88 3.34377 152.441 3.27148 153.013 3.27148C153.928 3.27148 154.707 3.42512 155.35 3.73238C155.993 4.03964 156.492 4.53664 156.854 5.21443C157.208 5.89221 157.389 6.75979 157.389 7.81713V15.7517H153.945V8.39552C153.945 7.96174 153.891 7.59123 153.791 7.28397C153.692 6.97671 153.547 6.72367 153.366 6.54292C153.176 6.35313 152.94 6.22661 152.66 6.14528C152.369 6.06394 152.061 6.0278 151.744 6.0278C151.236 6.0278 150.765 6.1453 150.339 6.3893C149.913 6.63331 149.569 6.96768 149.315 7.4105C149.062 7.85332 148.935 8.35034 148.935 8.91064V15.7517H145.537V8.39552C145.537 7.96174 145.483 7.59123 145.374 7.28397C145.265 6.97671 145.111 6.72367 144.921 6.54292C144.731 6.35313 144.495 6.22661 144.223 6.14528C143.951 6.06394 143.634 6.0278 143.281 6.0278C142.764 6.0278 142.302 6.1453 141.876 6.3893C141.45 6.63331 141.115 6.96768 140.861 7.4105C140.617 7.85332 140.49 8.35034 140.49 8.91064V15.7517H137.056Z" fill="#57803E"/>
</svg>
