<svg width="164" height="20" viewBox="0 0 164 20" fill="none" xmlns="http://www.w3.org/2000/svg">
<path d="M29.5953 15.3884C28.8024 15.3884 28.0742 15.3158 27.4027 15.1624C26.7312 15.0091 26.1486 14.7912 25.647 14.5088C25.1454 14.2264 24.757 13.8713 24.4819 13.4517C24.2068 13.0322 24.0693 12.548 24.0693 11.9912C24.0693 11.9347 24.0693 11.8783 24.0693 11.8218C24.0693 11.7653 24.0774 11.7169 24.0936 11.6766H27.1034C27.1034 11.7008 27.1034 11.733 27.1034 11.7734C27.1034 11.8057 27.1034 11.8379 27.1034 11.8702C27.1195 12.201 27.2409 12.4673 27.4755 12.6771C27.7101 12.887 28.0257 13.0322 28.414 13.1209C28.8024 13.2097 29.2069 13.2581 29.6357 13.2581C30.0402 13.2581 30.4286 13.234 30.8089 13.1774C31.1891 13.1209 31.5047 13.0079 31.7636 12.8466C32.0225 12.6771 32.1439 12.4592 32.1439 12.1849C32.1439 11.8379 31.9901 11.5878 31.6908 11.4183C31.3833 11.2489 30.9707 11.1197 30.4367 11.0229C29.9027 10.9261 29.304 10.8131 28.6406 10.6921C28.0904 10.5953 27.5564 10.4742 27.0548 10.3209C26.5532 10.1676 26.092 9.97393 25.6955 9.73185C25.291 9.48978 24.9755 9.18317 24.7408 8.79585C24.5062 8.4166 24.3848 7.9405 24.3848 7.37566C24.3848 6.77854 24.5143 6.27017 24.7813 5.8425C25.0483 5.41483 25.4205 5.05979 25.9059 4.78544C26.3913 4.51108 26.9658 4.30934 27.6211 4.17217C28.2765 4.04306 28.9885 3.97852 29.749 3.97852C30.4529 3.97852 31.1244 4.04306 31.7474 4.17217C32.3704 4.30127 32.9125 4.49496 33.3656 4.75317C33.8267 5.01138 34.1827 5.32609 34.4578 5.71342C34.7329 6.10074 34.8623 6.53646 34.8623 7.02061C34.8623 7.10131 34.8623 7.18198 34.8623 7.24653C34.8623 7.31915 34.8543 7.36759 34.8381 7.416H31.8283V7.27076C31.8283 7.00448 31.7312 6.79469 31.5452 6.62523C31.3591 6.45578 31.1002 6.33471 30.7765 6.23788C30.4529 6.14105 30.0807 6.10071 29.6681 6.10071C29.4577 6.10071 29.2231 6.11684 28.9642 6.14105C28.7053 6.16526 28.4464 6.21367 28.2037 6.28629C27.961 6.35892 27.7668 6.45578 27.6211 6.57682C27.4755 6.69786 27.4027 6.85922 27.4027 7.05288C27.4027 7.30302 27.5322 7.49672 27.7991 7.64196C28.0661 7.78721 28.414 7.90016 28.8509 7.98086C29.2878 8.06155 29.7571 8.15032 30.2749 8.24715C30.8574 8.36819 31.4399 8.49728 32.0225 8.62638C32.605 8.75549 33.139 8.93299 33.6245 9.15893C34.1099 9.3768 34.4902 9.69961 34.7652 10.1111C35.0403 10.5227 35.1779 11.0794 35.1779 11.7653C35.1779 12.427 35.0403 12.9918 34.7733 13.4517C34.5063 13.9117 34.118 14.291 33.6245 14.5733C33.1228 14.8558 32.5403 15.0575 31.8606 15.1866C31.181 15.3158 30.4124 15.3884 29.5953 15.3884Z" fill="#57803E"/>
<path d="M41.1896 15.3857C39.8871 15.3857 38.8838 15.0549 38.1637 14.3933C37.4518 13.7316 37.0957 12.6906 37.0957 11.2624V4.24219H40.1298V10.7701C40.1298 11.1736 40.1783 11.5044 40.2754 11.7788C40.3725 12.0451 40.5181 12.2629 40.7122 12.4324C40.9064 12.6019 41.1411 12.7229 41.4081 12.7955C41.6751 12.8682 41.9825 12.9085 42.3304 12.9085C42.8321 12.9085 43.2852 12.7955 43.6897 12.5777C44.0942 12.3598 44.4259 12.0451 44.6767 11.6578C44.9276 11.2624 45.0489 10.8186 45.0489 10.3183V4.25027H48.0991V15.1518H45.6072L45.3806 13.4975H45.235C44.9033 13.9252 44.5311 14.2802 44.1103 14.5627C43.6977 14.8451 43.2366 15.0549 42.7269 15.1921C42.2171 15.3292 41.7156 15.3857 41.1896 15.3857Z" fill="#57803E"/>
<path d="M50.6396 18.9285V4.23452H53.1153L53.3823 5.80802H53.528C53.9568 5.14635 54.4989 4.67834 55.1624 4.39592C55.8177 4.12156 56.5377 3.98438 57.3144 3.98438C58.3258 3.98438 59.1996 4.18611 59.944 4.58956C60.6882 4.99302 61.2546 5.61435 61.6591 6.45355C62.0637 7.29275 62.2578 8.37403 62.2578 9.68931C62.2578 10.9723 62.0556 12.0375 61.643 12.8766C61.2304 13.7159 60.6721 14.3452 59.952 14.7648C59.2319 15.1764 58.3905 15.3862 57.4196 15.3862C56.9342 15.3862 56.465 15.3296 56.0199 15.2167C55.5669 15.1037 55.1542 14.9343 54.782 14.7083C54.4098 14.4824 54.0862 14.1999 53.8274 13.8691H53.7059V18.9285H50.6396ZM56.4326 12.917C57.0556 12.917 57.5652 12.8041 57.9697 12.5781C58.3743 12.3522 58.6657 12.0052 58.8598 11.5452C59.054 11.0853 59.151 10.5366 59.151 9.89912V9.48758C59.151 8.8259 59.054 8.26912 58.8598 7.80917C58.6657 7.3573 58.3662 7.0103 57.9697 6.78436C57.5652 6.55843 57.0474 6.44548 56.4083 6.44548C55.8095 6.44548 55.308 6.56653 54.9034 6.81667C54.4909 7.06682 54.1833 7.42188 53.9649 7.88182C53.7465 8.34176 53.6413 8.89045 53.6413 9.52791V9.81839C53.6413 10.2864 53.706 10.7222 53.8274 11.1095C53.9487 11.5049 54.1267 11.8357 54.3614 12.102C54.596 12.3682 54.8711 12.5781 55.2108 12.7152C55.5588 12.8444 55.9633 12.917 56.4326 12.917Z" fill="#57803E"/>
<path d="M70.1301 15.3858C68.8113 15.3858 67.6947 15.1842 66.7724 14.7727C65.8501 14.3611 65.1462 13.7397 64.6608 12.9006C64.1753 12.0614 63.9326 10.9882 63.9326 9.68904C63.9326 8.3899 64.1753 7.31671 64.6608 6.47751C65.1462 5.63831 65.842 5.00891 66.7481 4.60545C67.6543 4.20199 68.7546 3.99219 70.041 3.99219C71.3032 3.99219 72.3712 4.19392 73.2531 4.59738C74.135 5.00084 74.7985 5.60604 75.2434 6.4291C75.6965 7.25215 75.9149 8.28499 75.9149 9.52765V10.3749H67.0637C67.088 11.0124 67.2255 11.5369 67.4601 11.9565C67.6947 12.3761 68.0346 12.6827 68.4877 12.8764C68.9407 13.07 69.499 13.1669 70.1625 13.1669C70.4942 13.1669 70.8097 13.1265 71.1171 13.0539C71.4246 12.9813 71.6997 12.8602 71.9505 12.6988C72.2014 12.5374 72.4116 12.3438 72.5735 12.1098C72.7433 11.8758 72.8324 11.6095 72.8405 11.3029H75.8906C75.8906 11.9403 75.7451 12.5133 75.4618 13.0217C75.1787 13.53 74.7903 13.9576 74.2887 14.3046C73.7871 14.6516 73.1884 14.9179 72.4845 15.1035C71.7887 15.2891 70.9958 15.3858 70.1301 15.3858ZM67.1123 8.48673H72.719C72.719 8.09941 72.6544 7.7605 72.5249 7.47001C72.3955 7.17952 72.2094 6.93742 71.9748 6.74376C71.7401 6.5501 71.465 6.41295 71.1414 6.31612C70.8259 6.22736 70.4699 6.17891 70.0816 6.17891C69.4829 6.17891 68.9731 6.26768 68.5524 6.43713C68.1317 6.60659 67.7999 6.87288 67.5653 7.21179C67.3388 7.56683 67.185 7.98644 67.1123 8.48673Z" fill="#57803E"/>
<path d="M78.0752 15.1382V4.23673H80.5672L80.818 6.02004H80.9636C81.1011 5.64886 81.3034 5.30186 81.5704 4.98717C81.8293 4.67247 82.1529 4.42233 82.5331 4.24481C82.9134 4.06729 83.3504 3.97852 83.8278 3.97852C84.0785 3.97852 84.305 4.00273 84.5154 4.04308C84.7258 4.08343 84.9037 4.13183 85.0575 4.18831V6.84307H83.8519C83.3827 6.84307 82.9782 6.9157 82.6383 7.06095C82.2986 7.20619 82.0154 7.41602 81.7889 7.6823C81.5623 7.94858 81.3924 8.26327 81.2872 8.62638C81.182 8.9895 81.1335 9.39296 81.1335 9.84483V15.1463H78.0752V15.1382Z" fill="#57803E"/>
<path d="M91.1491 15.387C90.3886 15.387 89.7656 15.266 89.2802 15.032C88.7947 14.7979 88.4387 14.4509 88.2121 13.983C87.9856 13.515 87.8724 12.942 87.8724 12.2562V6.51897H86.1895V4.24346H87.9937L88.5763 1.07227H90.9226V4.24346H93.3741V6.51897H90.9226V11.8204C90.9226 12.232 91.0115 12.5467 91.1814 12.7646C91.3513 12.9824 91.6831 13.0873 92.1685 13.0873H93.3741V15.0562C93.196 15.1127 92.9695 15.1611 92.7106 15.2094C92.4436 15.2579 92.1766 15.2983 91.9015 15.3305C91.6183 15.3628 91.3675 15.387 91.1491 15.387Z" fill="#57803E"/>
<path d="M100.923 15.3858C99.6044 15.3858 98.4878 15.1842 97.5655 14.7727C96.6432 14.3611 95.9393 13.7397 95.4539 12.9006C94.9684 12.0614 94.7256 10.9882 94.7256 9.68904C94.7256 8.3899 94.9684 7.31671 95.4539 6.47751C95.9393 5.63831 96.6351 5.00891 97.5412 4.60545C98.4474 4.20199 99.5477 3.99219 100.834 3.99219C102.096 3.99219 103.164 4.19392 104.046 4.59738C104.928 5.00084 105.592 5.60604 106.036 6.4291C106.49 7.25215 106.708 8.28499 106.708 9.52765V10.3749H97.8649C97.8891 11.0124 98.0267 11.5369 98.2613 11.9565C98.4959 12.3761 98.8357 12.6827 99.2888 12.8764C99.7419 13.07 100.3 13.1669 100.964 13.1669C101.295 13.1669 101.611 13.1265 101.918 13.0539C102.226 12.9813 102.501 12.8602 102.752 12.6988C103.003 12.5374 103.213 12.3438 103.375 12.1098C103.545 11.8758 103.634 11.6095 103.642 11.3029H106.692C106.692 11.9403 106.546 12.5133 106.263 13.0217C105.98 13.53 105.591 13.9576 105.09 14.3046C104.588 14.6516 103.99 14.9179 103.286 15.1035C102.582 15.2891 101.797 15.3858 100.923 15.3858ZM97.9053 8.48673H103.512C103.512 8.09941 103.447 7.7605 103.318 7.47001C103.188 7.17952 103.002 6.93742 102.768 6.74376C102.533 6.5501 102.258 6.41295 101.934 6.31612C101.619 6.22736 101.263 6.17891 100.875 6.17891C100.276 6.17891 99.7662 6.26768 99.3455 6.43713C98.9247 6.60659 98.593 6.87288 98.3584 7.21179C98.1319 7.56683 97.9781 7.98644 97.9053 8.48673Z" fill="#57803E"/>
<path d="M112.372 15.3884C111.886 15.3884 111.401 15.34 110.916 15.2431C110.43 15.1463 110.001 14.9848 109.621 14.767C109.241 14.5491 108.933 14.2345 108.699 13.8229C108.464 13.4194 108.343 12.895 108.343 12.2575C108.343 11.4425 108.537 10.7808 108.925 10.2806C109.314 9.78027 109.872 9.40104 110.608 9.14282C111.344 8.88461 112.21 8.71515 113.213 8.63445C114.217 8.55376 115.325 8.5134 116.531 8.5134V7.86787C116.531 7.49669 116.45 7.19004 116.288 6.94797C116.126 6.70589 115.883 6.51227 115.544 6.37509C115.204 6.23791 114.751 6.16528 114.184 6.16528C113.683 6.16528 113.262 6.21371 112.906 6.3186C112.55 6.4235 112.283 6.56068 112.097 6.72206C111.911 6.88345 111.814 7.08516 111.814 7.30302V7.55316H108.82C108.804 7.47247 108.796 7.39984 108.788 7.34336C108.78 7.28688 108.78 7.22235 108.78 7.13359C108.78 6.49613 108.998 5.93935 109.427 5.46327C109.856 4.98719 110.487 4.62403 111.304 4.36581C112.121 4.1076 113.116 3.97852 114.265 3.97852C115.414 3.97852 116.377 4.09956 117.162 4.34971C117.946 4.59986 118.545 4.98719 118.958 5.51169C119.37 6.03618 119.581 6.70592 119.581 7.5209V12.3059C119.581 12.556 119.645 12.7417 119.775 12.8788C119.904 13.0079 120.066 13.0726 120.26 13.0726H121.134V15.0172C120.981 15.0817 120.738 15.1544 120.406 15.2351C120.074 15.3077 119.686 15.348 119.241 15.348C118.731 15.348 118.303 15.2835 117.971 15.1544C117.639 15.0252 117.38 14.8477 117.194 14.6138C117.008 14.3797 116.87 14.1215 116.789 13.8149H116.62C116.328 14.1215 115.972 14.3877 115.552 14.6298C115.131 14.8719 114.654 15.0575 114.12 15.1786C113.594 15.3238 113.011 15.3884 112.372 15.3884ZM113.286 13.1451C113.691 13.1451 114.079 13.0967 114.459 12.9918C114.84 12.8869 115.179 12.7417 115.487 12.556C115.794 12.3704 116.037 12.1365 116.231 11.8541C116.425 11.5716 116.522 11.265 116.522 10.9342V10.329C115.438 10.329 114.524 10.3774 113.755 10.4823C112.995 10.5872 112.404 10.7567 112 10.9987C111.595 11.2408 111.385 11.5716 111.385 12.0074C111.385 12.2817 111.466 12.5077 111.636 12.6691C111.806 12.8385 112.032 12.9595 112.323 13.0322C112.623 13.1129 112.938 13.1451 113.286 13.1451Z" fill="#57803E"/>
<path d="M122.566 15.1357V4.23425H125.058L125.309 5.87232H125.455C125.746 5.44465 126.094 5.0896 126.507 4.80718C126.919 4.52475 127.356 4.31494 127.825 4.18584C128.295 4.05673 128.78 3.99219 129.282 3.99219C130.123 3.99219 130.843 4.13742 131.418 4.43598C131.992 4.73454 132.445 5.21065 132.744 5.87232H132.89C133.198 5.44465 133.554 5.0896 133.958 4.80718C134.363 4.52475 134.816 4.31494 135.309 4.18584C135.803 4.05673 136.304 3.99219 136.815 3.99219C137.631 3.99219 138.328 4.12936 138.902 4.40372C139.476 4.67807 139.921 5.12184 140.244 5.72703C140.56 6.33222 140.722 7.10688 140.722 8.05097V15.1357H137.647V8.56741C137.647 8.18009 137.599 7.84926 137.509 7.57491C137.421 7.30056 137.291 7.07462 137.13 6.91324C136.96 6.74377 136.75 6.6308 136.499 6.55818C136.239 6.48556 135.965 6.45328 135.681 6.45328C135.228 6.45328 134.808 6.5582 134.427 6.77607C134.047 6.99394 133.74 7.2925 133.513 7.68789C133.287 8.08328 133.173 8.52707 133.173 9.02736V15.1357H130.139V8.56741C130.139 8.18009 130.091 7.84926 129.994 7.57491C129.897 7.30056 129.759 7.07462 129.589 6.91324C129.419 6.74377 129.209 6.6308 128.966 6.55818C128.723 6.48556 128.44 6.45328 128.125 6.45328C127.664 6.45328 127.251 6.5582 126.871 6.77607C126.49 6.99394 126.191 7.2925 125.965 7.68789C125.746 8.08328 125.633 8.52707 125.633 9.02736V15.1357H122.566Z" fill="#57803E"/>
<g clip-path="url(#clip0_40000044_17452)">
<path d="M0.927734 15.9576V7.9082H3.39004L3.88567 7.9256C5.32476 7.9762 6.84083 8.1628 7.92853 9.1138C8.41662 9.5408 8.96603 10.1136 9.15035 10.724C9.37138 11.456 9.55254 12.519 9.35948 13.2582C9.09519 14.2692 9.06484 14.4402 8.17476 15.1954C7.28468 15.9506 4.16424 15.9578 4.16424 15.9578L0.927734 15.9576Z" fill="#57803E"/>
<path d="M16.7462 0H10.7783L10.7978 9.7098C10.8001 10.8566 10.769 12.0448 11.216 13.0994C11.4595 13.6738 11.6361 13.9942 12.0454 14.457C12.6622 15.154 13.1561 15.4576 14.0271 15.743C14.6749 15.9556 15.7553 15.9574 15.7553 15.9574H16.792V8.3122C16.792 8.3122 17.1146 8.3276 17.6214 8.3122C18.1283 8.2966 19.2974 7.8146 19.9948 7.0022C20.5855 6.3142 20.8472 5.7638 20.9394 4.8586C21.0315 3.9536 20.9394 2.477 20.9394 2.477H16.7462V0Z" fill="#57803E"/>
<path d="M9.4766 0V8.19141C7.28117 8.19141 5.00211 8.17699 3.01957 7.22559C2.83357 7.13643 2.67187 7.04377 2.54692 6.94922C1.6635 6.28071 1.2983 5.68511 1.03422 4.60938C0.840996 3.82269 0.929275 3.02401 1.15043 2.24512C1.33476 1.59552 1.47561 1.38506 1.96391 0.930664C2.02029 0.878618 2.08081 0.831084 2.1436 0.787109C3.489 -0.162986 5.29807 0.031993 6.94047 0H9.4766ZM5.29008 3.42773H4.26762L5.09477 4.03418L4.77934 5.01367L5.60649 4.4082L6.43363 5.01367L6.11723 4.03418L6.94438 3.42773H5.92192L5.60649 2.44727L5.29008 3.42773Z" fill="#57803E"/>
<path d="M17.9721 13.7227L18.4656 15.2541H20.0632L18.7707 16.2007L19.2644 17.7321L17.9721 16.7855L16.6797 17.7321L17.1733 16.2007L15.8809 15.2541H17.4785L17.9721 13.7227Z" fill="#F4FBF1"/>
<path d="M17.9727 11.4551C20.3137 11.4553 22.2109 13.3686 22.2109 15.7285C22.2107 18.0882 20.3136 20.0008 17.9727 20.001C15.6315 20.001 13.7336 18.0883 13.7334 15.7285C13.7334 13.3685 15.6314 11.4551 17.9727 11.4551ZM17.4785 15.2559H15.8809L17.1738 16.2021L16.6797 17.7334L17.9727 16.7871L19.2646 17.7334L18.7705 16.2021L20.0635 15.2559H18.4658L17.9727 13.7236L17.4785 15.2559Z" fill="#57803E"/>
<path d="M17.9727 11.4551C20.3137 11.4553 22.2109 13.3686 22.2109 15.7285C22.2107 18.0882 20.3136 20.0008 17.9727 20.001C15.6315 20.001 13.7336 18.0883 13.7334 15.7285C13.7334 13.3685 15.6314 11.4551 17.9727 11.4551ZM17.4785 15.2559H15.8809L17.1738 16.2021L16.6797 17.7334L17.9727 16.7871L19.2646 17.7334L18.7705 16.2021L20.0635 15.2559H18.4658L17.9727 13.7236L17.4785 15.2559Z" fill="#57803E"/>
</g>
<path d="M145.968 15.0011L141.716 4.16864H144.557L147.637 12.6912H146.584L149.684 4.16864H152.525L148.273 15.0011H145.968Z" fill="#57803E"/>
<path d="M153.567 15.0011V4.16864H156.011V6.29929L155.812 5.92095C156.064 5.27047 156.474 4.77929 157.044 4.44742C157.627 4.10226 158.303 3.92969 159.071 3.92969C159.866 3.92969 160.568 4.10226 161.177 4.44742C161.8 4.79257 162.283 5.27711 162.628 5.90104C162.972 6.51169 163.144 7.22191 163.144 8.03169V15.0011H160.541V8.64898C160.541 8.17108 160.449 7.75955 160.263 7.4144C160.078 7.06925 159.819 6.80375 159.488 6.61789C159.17 6.41877 158.793 6.3192 158.356 6.3192C157.932 6.3192 157.554 6.41877 157.223 6.61789C156.892 6.80375 156.633 7.06925 156.448 7.4144C156.263 7.75955 156.17 8.17108 156.17 8.64898V15.0011H153.567Z" fill="#57803E"/>
<defs>
<clipPath id="clip0_40000044_17452">
<rect width="21.4286" height="20" fill="white" transform="translate(0.855469)"/>
</clipPath>
</defs>
</svg>
