<svg width="84" height="18" viewBox="0 0 84 18" fill="none" xmlns="http://www.w3.org/2000/svg">
<g clip-path="url(#clip0_40000044_17486)">
<path fill-rule="evenodd" clip-rule="evenodd" d="M5.88898 0.308594H18.3438C18.641 0.308594 18.9155 0.465442 19.0637 0.719904L22.6923 6.94992C22.8805 7.27298 22.8246 7.68078 22.5562 7.94278L12.5684 17.6919C12.2449 18.0077 11.7244 18.0077 11.4008 17.6919L1.42651 7.95592C1.15186 7.68785 1.10044 7.26818 1.3024 6.94312L5.18109 0.699918C5.33214 0.456774 5.6002 0.308594 5.88898 0.308594ZM16.7357 3.09007V4.83811H13.1878V6.05009C15.6796 6.1796 17.5491 6.71152 17.563 7.34912L17.5629 8.67832C17.549 9.31592 15.6796 9.84785 13.1878 9.97738V12.9517H10.8319V9.97738C8.34019 9.84785 6.47066 9.31592 6.45679 8.67832L6.45687 7.34912C6.47074 6.71152 8.34019 6.1796 10.8319 6.05009V4.83811H7.28407V3.09007H16.7357ZM12.0099 9.06418C14.6691 9.06418 16.8917 8.61438 17.4357 8.01372C16.9744 7.50432 15.3059 7.10345 13.1878 6.99338V8.26232C12.8081 8.28205 12.4141 8.29245 12.0099 8.29245C11.6057 8.29245 11.2116 8.28205 10.8319 8.26232V6.99338C8.71379 7.10345 7.04538 7.50432 6.58412 8.01372C7.12807 8.61438 9.35072 9.06418 12.0099 9.06418Z" fill="#57803E"/>
<path d="M27.5544 3.68904L30.4335 3.36914V6.12826H32.9327V8.52751H30.4135V12.2463C30.4135 13.126 30.7867 13.5659 31.5331 13.5659C32.0129 13.5659 32.4128 13.4859 32.7327 13.326L33.3925 15.7252C32.7394 15.9784 32.0463 16.1251 31.3132 16.165C30.1535 16.2184 29.2339 15.9451 28.5541 15.3453C27.8876 14.7322 27.5544 13.6992 27.5544 12.2463V8.52751H25.7949V6.12826H27.5544V3.68904Z" fill="#57803E"/>
<path d="M43.708 11.9467H36.4503C36.5303 12.4531 36.8035 12.873 37.2701 13.2062C37.7366 13.5261 38.3564 13.6861 39.1295 13.6861C40.2358 13.6861 41.0888 13.4261 41.6887 12.9063L43.3081 14.7057C42.3218 15.6788 40.9089 16.1653 39.0695 16.1653C37.3101 16.1653 35.9438 15.6921 34.9708 14.7457C34.011 13.7994 33.5312 12.5198 33.5312 10.9069C33.5312 9.38747 34.0044 8.16121 34.9508 7.22814C35.8971 6.28178 37.17 5.80859 38.7696 5.80859C40.5156 5.80859 41.8486 6.34176 42.7682 7.40807C43.7013 8.47441 44.0146 9.98727 43.708 11.9467ZM36.4503 9.84734H41.1288C41.1021 9.34081 40.8623 8.95427 40.409 8.68767C39.9559 8.40774 39.4094 8.26781 38.7696 8.26781C38.1964 8.26781 37.7032 8.40774 37.29 8.68767C36.8768 8.96761 36.5969 9.35414 36.4503 9.84734Z" fill="#57803E"/>
<path d="M46.108 3.68904L48.9872 3.36914V6.12826H51.4864V8.52751H48.9672V12.2463C48.9672 13.126 49.3404 13.5659 50.0868 13.5659C50.5666 13.5659 50.9665 13.4859 51.2864 13.326L51.9462 15.7252C51.2931 15.9784 50.6 16.1251 49.8669 16.165C48.7072 16.2184 47.7875 15.9451 47.1078 15.3453C46.4413 14.7322 46.108 13.6992 46.108 12.2463V8.52751H44.3486V6.12826H46.108V3.68904Z" fill="#57803E"/>
<path d="M53.0264 1.94922H55.9254V7.28753C56.6319 6.36781 57.6316 5.90796 58.9245 5.90796C61.5503 5.90796 62.8632 7.48746 62.8632 10.6465V15.9447H59.9842V10.6665C59.9842 9.98666 59.8109 9.46013 59.4643 9.08693C59.1311 8.71373 58.6779 8.52713 58.1048 8.52713C57.4783 8.52713 56.9518 8.7404 56.5252 9.16693C56.112 9.59346 55.9054 10.1866 55.9054 10.9463V15.9447H53.0264V1.94922Z" fill="#57803E"/>
<path d="M74.1541 11.9467H66.8966C66.9766 12.4531 67.2499 12.873 67.7161 13.2062C68.1827 13.5261 68.8027 13.6861 69.5761 13.6861C70.6821 13.6861 71.5354 13.4261 72.1347 12.9063L73.7547 14.7057C72.7681 15.6788 71.3554 16.1653 69.5161 16.1653C67.7561 16.1653 66.3901 15.6921 65.4171 14.7457C64.4574 13.7994 63.9775 12.5198 63.9775 10.9069C63.9775 9.38747 64.4507 8.16121 65.3971 7.22814C66.3435 6.28178 67.6161 5.80859 69.2161 5.80859C70.9621 5.80859 72.2947 6.34176 73.2147 7.40807C74.1474 8.47441 74.4607 9.98727 74.1541 11.9467ZM66.8966 9.84734H71.5754C71.5487 9.34081 71.3087 8.95427 70.8554 8.68767C70.4021 8.40774 69.8554 8.26781 69.2161 8.26781C68.6427 8.26781 68.1494 8.40774 67.7361 8.68767C67.3231 8.96761 67.0433 9.35414 66.8966 9.84734Z" fill="#57803E"/>
<path d="M75.3486 6.08758H78.028L78.248 7.16721C78.8746 6.28752 79.754 5.84766 80.8873 5.84766C81.82 5.84766 82.6266 6.14756 83.3066 6.74734L82.1066 9.02661C81.64 8.69341 81.114 8.52681 80.5273 8.52681C79.874 8.52681 79.328 8.73341 78.888 9.14661C78.448 9.54648 78.228 10.0996 78.228 10.8061V15.9444H75.3486V6.08758Z" fill="#57803E"/>
</g>
<defs>
<clipPath id="clip0_40000044_17486">
<rect width="82.6667" height="18" fill="white" transform="translate(0.666992)"/>
</clipPath>
</defs>
</svg>
